<?xml version="1.0" standalone="no"?>
<!DOCTYPE svg PUBLIC "-//W3C//DTD SVG 1.1//EN" "http://www.w3.org/Graphics/SVG/1.1/DTD/svg11.dtd" >
<svg>
<metadata>
Created by FontForge 20090622 at Fri Jul 27 17:05:39 2018
 By deploy user
Copyright 1997 International Typeface Corporation. All rights reserved.
</metadata>
<defs>
<font id="BlairITCStd" horiz-adv-x="500" >
  <font-face 
    font-family="Blair ITC Std"
    font-weight="500"
    font-stretch="normal"
    units-per-em="1000"
    panose-1="2 0 5 5 3 0 0 2 0 4"
    ascent="747"
    descent="-253"
    x-height="615"
    cap-height="724"
    bbox="-245 -248 1538 964"
    underline-thickness="109"
    underline-position="6"
    unicode-range="U+000D-U+FB02"
  />
<missing-glyph 
d="M12 0v665h475v-665h-475zM88 618l162 -243l161 243h-323zM60 575v-484l40 61l80 120l41 61zM440 575l-162 -242l162 -243v485zM411 48l-161 242l-162 -242h323z" />
    <glyph glyph-name="f_i" unicode="fi" horiz-adv-x="1099" 
d="M994 0h-120v615h120v-615zM744 506h-519v-132h361v-109h-361v-265h-120v615h639v-109z" />
    <glyph glyph-name="f_l" unicode="fl" horiz-adv-x="1494" 
d="M1469 0h-595v615h120v-506h475v-109zM744 506h-519v-132h361v-109h-361v-265h-120v615h639v-109z" />
    <glyph glyph-name=".notdef" 
d="M12 0v665h475v-665h-475zM88 618l162 -243l161 243h-323zM60 575v-484l40 61l80 120l41 61zM440 575l-162 -242l162 -243v485zM411 48l-161 242l-162 -242h323z" />
    <glyph glyph-name=".null" horiz-adv-x="0" 
 />
    <glyph glyph-name="nonmarkingreturn" horiz-adv-x="333" 
 />
    <glyph glyph-name="CR" unicode="&#xd;" horiz-adv-x="300" 
 />
    <glyph glyph-name="space" unicode=" " horiz-adv-x="300" 
 />
    <glyph glyph-name="exclam" unicode="!" horiz-adv-x="357" 
d="M249 669l-28 -478h-96l-28 478v55h152v-55zM251 0h-155v109h155v-109z" />
    <glyph glyph-name="quotedbl" unicode="&#x22;" horiz-adv-x="300" 
d="M112 701v-271h-68v271h68zM256 701v-271h-68v271h68z" />
    <glyph glyph-name="numbersign" unicode="#" horiz-adv-x="762" 
d="M682 502h-121l-18 -115h105v-93h-121l-29 -178h-100l30 178h-149l-30 -178h-100l29 178h-103v93h120l18 115h-105v93h121l21 129h100l-20 -129h148l21 129h100l-21 -129h104v-93zM462 502h-149l-19 -115h149z" />
    <glyph glyph-name="dollar" unicode="$" horiz-adv-x="949" 
d="M517 435q176 -9 261 -60t85 -150q0 -106 -88 -166.5t-258 -69.5v-55h-120v57q-221 18 -345 118l65 87q127 -81 280 -98v233q-163 5 -241.5 49.5t-78.5 135.5q0 94 82 150t238 66v41h120v-43q201 -28 303 -103l-73 -80q-106 56 -230 74v-186zM397 443v183
q-194 -8 -194 -94q0 -80 194 -89zM517 94q106 7 161 39t55 84q0 102 -216 108v-231z" />
    <glyph glyph-name="percent" unicode="%" horiz-adv-x="1144" 
d="M1068 183q0 -82 -60 -140q-59 -57 -141 -57q-83 0 -142 57q-61 58 -61 140q0 81 61 140q59 57 142 57q82 0 141 -57q60 -58 60 -140zM964 724l-647 -734h-137l648 734h136zM480 542q0 -81 -60 -139q-59 -57 -142 -57q-84 0 -142 56q-60 58 -60 140t60 140q59 57 142 57
t142 -57q60 -60 60 -140zM961 183q0 41 -27 69t-67 28q-41 0 -69 -28t-28 -69t28 -69t69 -28q40 0 67 28t27 69zM373 542q0 41 -27.5 69t-67.5 28q-41 0 -68.5 -28t-27.5 -69t28 -69t68 -28t67.5 28t27.5 69z" />
    <glyph glyph-name="ampersand" unicode="&#x26;" horiz-adv-x="942" 
d="M881 -3q-140 7 -263 72q-120 -82 -285 -82q-130 0 -211 62t-81 155q0 158 252 218q-37 59 -37 120t39 111q65 84 176 84q87 0 141.5 -50.5t54.5 -131.5q0 -69 -48 -120t-140 -78q66 -84 145 -151q61 48 104 172h123q-40 -131 -140 -234q81 -36 170 -36v-111zM411 444
q139 17 139 114q0 32 -23.5 54.5t-59.5 22.5q-41 0 -67 -26t-26 -67t37 -98zM533 141q-93 84 -172 189q-199 -31 -199 -130q0 -48 49 -78.5t134 -30.5q83 0 188 50z" />
    <glyph glyph-name="quotesingle" unicode="'" horiz-adv-x="155" 
d="M112 701v-271h-68v271h68z" />
    <glyph glyph-name="parenleft" unicode="(" horiz-adv-x="432" 
d="M373 -141q-75 8 -125.5 39.5t-88.5 91.5q-87 140 -87 334q0 196 87 336q39 62 89 93.5t125 39.5v-56h-2q-77 0 -128.5 -111.5t-51.5 -301.5q0 -192 50 -300.5t131 -108.5h1v-56z" />
    <glyph glyph-name="parenright" unicode=")" horiz-adv-x="436" 
d="M58 793q75 -8 125 -40t88 -93q88 -143 88 -336q0 -194 -87 -335q-38 -60 -88.5 -91t-125.5 -39v56h1q80 0 130.5 109t50.5 300q0 189 -51.5 301t-128.5 112h-2v56z" />
    <glyph glyph-name="asterisk" unicode="*" horiz-adv-x="576" 
d="M514 519l-170 -33l110 -134l-81 -58l-90 152l-89 -152l-81 58l110 134l-170 33l31 95l159 -61l-19 171h119l-19 -171l159 61z" />
    <glyph glyph-name="plus" unicode="+" horiz-adv-x="932" 
d="M763 256h-258v-247h-80v247h-256v80h256v247h80v-247h258v-80z" />
    <glyph glyph-name="comma" unicode="," horiz-adv-x="355" 
d="M255 -28q0 -109 -125 -109h-23v59q75 2 75 42v36h-82v109h155v-137z" />
    <glyph glyph-name="hyphen" unicode="-" horiz-adv-x="531" 
d="M471 265h-411v109h411v-109z" />
    <glyph glyph-name="period" unicode="." horiz-adv-x="355" 
d="M255 0h-155v109h155v-109z" />
    <glyph glyph-name="slash" unicode="/" horiz-adv-x="542" 
d="M571 724l-463 -734h-137l464 734h136z" />
    <glyph glyph-name="zero" unicode="0" horiz-adv-x="932" 
d="M846 362q0 -154 -113 -264q-111 -108 -267 -108q-157 0 -267 108q-113 110 -113 264q0 152 114 263q110 107 266 107q158 0 267 -107q113 -110 113 -263zM725 362q0 116 -72.5 189.5t-186.5 73.5t-186.5 -73.5t-72.5 -189.5q0 -115 73 -189t186 -74t186 74t73 189z" />
    <glyph glyph-name="one" unicode="1" horiz-adv-x="383" 
d="M264 0h-120v604l-116 -50v104q66 21 117 66h119v-724z" />
    <glyph glyph-name="two" unicode="2" horiz-adv-x="838" 
d="M766 0h-735q6 137 79.5 224.5t221.5 134.5q32 10 85.5 24t88.5 25t60 25q52 30 52 78q0 51 -51.5 82.5t-143.5 31.5q-156 0 -283 -101l-76 80q166 129 361 129q143 0 233 -65t90 -165q0 -75 -46.5 -122.5t-144.5 -74.5q-26 -7 -98.5 -24.5t-110.5 -30.5
q-130 -45 -175 -142h593v-109z" />
    <glyph glyph-name="three" unicode="3" horiz-adv-x="861" 
d="M624 381q71 -24 109 -70.5t38 -107.5q0 -100 -99.5 -157t-283.5 -57q-121 0 -210 34.5t-163 112.5l80 80q130 -118 306 -118q119 0 181 31.5t62 89.5q0 108 -288 108q-37 0 -57 -1v98h110q98 0 150 28t52 79q0 94 -197 94q-150 0 -277 -81l-69 74q166 115 345 115
q152 0 237 -53.5t85 -143.5q0 -105 -111 -155z" />
    <glyph glyph-name="four" unicode="4" horiz-adv-x="811" 
d="M788 142h-166v-142h-120v142h-477v109l479 473h118v-473h166v-109zM502 251v346l-349 -346h349z" />
    <glyph glyph-name="five" unicode="5" horiz-adv-x="884" 
d="M182 416q124 51 249 51q168 0 265.5 -65t97.5 -169q0 -108 -96 -176t-256 -68q-258 0 -402 147l94 64q115 -106 306 -106q107 0 169 38.5t62 100.5q0 60 -65.5 96.5t-184.5 36.5q-136 0 -262 -65l-102 56l113 367h570v-109h-489z" />
    <glyph glyph-name="six" unicode="6" horiz-adv-x="914" 
d="M200 330q143 125 295 125q149 0 242.5 -65t93.5 -165q0 -109 -89.5 -173t-250.5 -64q-197 0 -306.5 98.5t-109.5 271.5q0 123 69 217q57 76 144.5 118t193.5 42q200 0 318 -132l-88 -70q-82 93 -230 93q-91 0 -158 -41q-62 -37 -95.5 -92.5t-33.5 -117.5q0 -18 5 -45z
M227 220q65 -121 261 -121q101 0 160.5 34.5t59.5 88.5q0 57 -60 94.5t-157 37.5q-79 0 -148 -35t-116 -99z" />
    <glyph glyph-name="seven" unicode="7" horiz-adv-x="765" 
d="M741 615l-472 -615h-138l471 615h-587v109h726v-109z" />
    <glyph glyph-name="eight" unicode="8" horiz-adv-x="893" 
d="M655 380q86 -24 132 -71t46 -107q0 -100 -100 -157t-286 -57t-286.5 57t-100.5 157q0 60 46 107t132 71q-62 20 -95 59.5t-33 90.5q0 94 87.5 148t247.5 54q161 0 249.5 -54t88.5 -148q0 -51 -33 -90.5t-95 -59.5zM663 529q0 96 -216 96q-217 0 -217 -96q0 -49 56 -77
t161 -28t160.5 28t55.5 77zM708 212q0 115 -261 115q-262 0 -262 -115q0 -55 66.5 -84.5t195.5 -29.5t195 29.5t66 84.5z" />
    <glyph glyph-name="nine" unicode="9" horiz-adv-x="890" 
d="M669 396q-53 -61 -132 -94.5t-171 -33.5q-151 0 -239.5 61t-88.5 163q0 110 92.5 175.5t254.5 65.5q189 0 302 -103t113 -274q0 -163 -120 -269q-112 -100 -281 -100q-200 0 -325 123l81 78q77 -91 236 -91q64 0 121 22q74 29 118.5 93.5t44.5 143.5q0 24 -6 40zM642 508
q-73 119 -267 119q-100 0 -157.5 -34.5t-57.5 -90.5q0 -59 56 -94.5t155 -35.5q85 0 155 35.5t116 100.5z" />
    <glyph glyph-name="colon" unicode=":" horiz-adv-x="355" 
d="M255 364h-155v109h155v-109zM255 0h-155v109h155v-109z" />
    <glyph glyph-name="semicolon" unicode=";" horiz-adv-x="360" 
d="M255 364h-155v109h155v-109zM255 -28q0 -109 -125 -109h-23v59q75 2 75 42v36h-82v109h155v-137z" />
    <glyph glyph-name="less" unicode="&#x3c;" horiz-adv-x="932" 
d="M764 3l-597 265v62l597 263v-86l-482 -207v-3l482 -208v-86z" />
    <glyph glyph-name="equal" unicode="=" horiz-adv-x="932" 
d="M763 370h-594v80h594v-80zM763 144h-594v80h594v-80z" />
    <glyph glyph-name="greater" unicode="&#x3e;" horiz-adv-x="932" 
d="M764 267l-597 -264v86l482 208v2l-482 208v87l597 -266v-61z" />
    <glyph glyph-name="question" unicode="?" horiz-adv-x="727" 
d="M22 590q135 139 332 139q153 0 240 -58t87 -156q0 -72 -35.5 -111t-116.5 -62q-14 -4 -38 -10t-37.5 -10l-30.5 -9.5t-29 -11.5q-60 -29 -64 -110h-97q-1 8 -1 24q0 75 38 120t122 75q13 5 38.5 13.5l36 12t28.5 11t25 13.5t16.5 15t12.5 20t3 24q0 50 -50.5 77
t-147.5 27q-159 0 -249 -98zM361 0h-155v109h155v-109z" />
    <glyph glyph-name="at" unicode="@" horiz-adv-x="830" 
d="M403 -19q-151 0 -245 94q-95 93 -95 239q0 81 31 147q43 95 136 152t207 57q98 0 184 -49q69 -40 108 -107.5t39 -146.5q0 -103 -65.5 -171.5t-163.5 -68.5q-77 0 -94 50q-45 -30 -89 -30q-54 0 -86.5 36.5t-32.5 96.5q0 111 81 184q48 43 112 43q34 0 65 -18l8 14h82
q-73 -232 -73 -272q0 -45 45 -45q57 0 90 47.5t33 130.5q0 107 -66.5 171.5t-176.5 64.5q-128 0 -206 -77t-78 -203q0 -270 282 -270h6v-69h-38zM470 384q0 34 -10.5 49t-34.5 15q-41 0 -74 -53t-33 -129q0 -56 45 -56q42 0 74.5 50.5t32.5 123.5z" />
    <glyph glyph-name="A" unicode="A" horiz-adv-x="947" 
d="M932 0h-131l-84 162h-487l-84 -162h-131l383 724h151zM658 271l-184 350l-185 -350h369z" />
    <glyph glyph-name="B" unicode="B" horiz-adv-x="1057" 
d="M848 373q124 -42 124 -183q0 -93 -69.5 -141.5t-204.5 -48.5h-577v724h585q110 0 173 -54t63 -144q0 -99 -94 -153zM708 421q50 0 83.5 28.5t33.5 69.5q0 44 -30 70t-82 26h-472v-194h467zM699 109q77 0 113.5 23.5t36.5 74.5q0 105 -131 105h-477v-203h458z" />
    <glyph glyph-name="C" unicode="C" horiz-adv-x="1046" 
d="M966 559l-109 -39q-110 117 -308 117q-150 0 -244.5 -77t-94.5 -196q0 -123 93.5 -198.5t252.5 -75.5q192 0 302 119l103 -57q-78 -91 -176.5 -131.5t-235.5 -40.5q-193 0 -319 96q-145 109 -145 288q0 175 147 286q127 97 317 97q272 0 417 -188z" />
    <glyph glyph-name="D" unicode="D" horiz-adv-x="1065" 
d="M579 724q189 0 299.5 -100.5t110.5 -269.5q0 -156 -117 -258q-108 -96 -270 -96h-481v724h458zM612 109q108 0 177.5 69.5t69.5 178.5q0 116 -74.5 187t-195.5 71h-348v-506h371z" />
    <glyph glyph-name="E" unicode="E" horiz-adv-x="939" 
d="M879 0h-758v724h730v-109h-610v-185h424v-109h-424v-212h638v-109z" />
    <glyph glyph-name="F" unicode="F" horiz-adv-x="871" 
d="M851 615h-610v-185h424v-109h-424v-321h-120v724h730v-109z" />
    <glyph glyph-name="G" unicode="G" horiz-adv-x="1092" 
d="M1009 374q0 -177 -126.5 -286t-335.5 -109q-191 0 -319 97q-145 110 -145 287q0 175 147 286q128 98 327 98q239 0 392 -175l-112 -56q-113 121 -290 121q-137 0 -231 -68q-108 -79 -108 -206q0 -122 93 -198t246 -76q117 0 197 48.5t115 138.5h-337v109h487v-11z" />
    <glyph glyph-name="H" unicode="H" horiz-adv-x="1062" 
d="M941 0h-120v321h-580v-321h-120v724h120v-294h580v294h120v-724z" />
    <glyph glyph-name="I" unicode="I" horiz-adv-x="362" 
d="M241 0h-120v724h120v-724z" />
    <glyph glyph-name="J" unicode="J" horiz-adv-x="788" 
d="M680 232q0 -123 -83.5 -188.5t-244.5 -65.5q-146 0 -225.5 64t-85.5 186h122q8 -76 54 -108.5t142 -32.5q107 0 154 33t47 112v492h120v-492z" />
    <glyph glyph-name="K" unicode="K" horiz-adv-x="961" 
d="M961 0h-154l-348 381l-218 -161v-220h-120v724h120v-375l507 375h173l-370 -274z" />
    <glyph glyph-name="L" unicode="L" horiz-adv-x="820" 
d="M800 0h-679v724h120v-615h559v-109z" />
    <glyph glyph-name="M" unicode="M" horiz-adv-x="1237" 
d="M1116 0h-120v592h-3l-376 -472l-373 472h-3v-592h-120v724h149l348 -438l349 438h149v-724z" />
    <glyph glyph-name="N" unicode="N" horiz-adv-x="1064" 
d="M943 0h-148l-554 594v-594h-120v724h149l553 -594v594h120v-724z" />
    <glyph glyph-name="O" unicode="O" horiz-adv-x="1096" 
d="M1013 363q0 -178 -146 -288q-128 -96 -318 -96q-192 0 -320 97q-146 110 -146 287q0 174 148 286q130 98 318 98t317 -98q147 -112 147 -286zM888 363q0 127 -108 206q-94 68 -231 68q-151 0 -246 -77.5t-95 -196.5q0 -123 93 -198.5t248 -75.5q154 0 246.5 76t92.5 198z
" />
    <glyph glyph-name="P" unicode="P" horiz-adv-x="953" 
d="M695 724q111 0 176 -61.5t65 -164.5q0 -108 -67.5 -165t-196.5 -57h-431v-276h-120v724h574zM674 385q139 0 139 111q0 119 -147 119h-425v-230h433z" />
    <glyph glyph-name="Q" unicode="Q" horiz-adv-x="1096" 
d="M681 -5q-67 -15 -132 -15q-190 0 -319 97q-147 111 -147 287q0 174 148 286q130 98 318 98t317 -98q147 -111 147 -286q0 -223 -221 -332l90 -99l-112 -36zM712 120q176 71 176 244q0 127 -109 207q-94 68 -230 68q-138 0 -232 -68q-109 -79 -109 -207q0 -122 93.5 -198
t247.5 -76q11 0 43 2l-78 87l114 34z" />
    <glyph glyph-name="R" unicode="R" horiz-adv-x="1008" 
d="M942 0h-139l-196 276h-366v-276h-120v724h571q114 0 179 -61.5t65 -166.5q0 -92 -51 -146t-137 -68zM674 385q67 0 103 29t36 82q0 119 -150 119h-422v-230h433z" />
    <glyph glyph-name="S" unicode="S" horiz-adv-x="939" 
d="M755 554q-161 82 -328 82q-111 0 -170 -26t-59 -72q0 -47 63 -70q35 -12 86.5 -17t127 -9.5t131.5 -11.5q136 -17 201 -66.5t65 -139.5q0 -115 -102 -178t-293 -63q-277 0 -431 122l66 87q170 -104 366 -104q127 0 195.5 34t68.5 94q0 64 -72 87q-49 16 -220 27l-44 3
q-179 12 -257 51t-78 138q0 102 95.5 161t269.5 59q234 0 392 -107z" />
    <glyph glyph-name="T" unicode="T" horiz-adv-x="852" 
d="M832 615h-346v-615h-120v615h-346v109h812v-109z" />
    <glyph glyph-name="U" unicode="U" horiz-adv-x="1052" 
d="M936 234q0 -113 -111 -184.5t-298 -71.5t-299 72t-112 184v490h120v-461q0 -85 74.5 -130t216.5 -45t215.5 45t73.5 130v461h120v-490z" />
    <glyph glyph-name="V" unicode="V" horiz-adv-x="928" 
d="M923 724l-390 -724h-138l-390 724h134l325 -604l325 604h134z" />
    <glyph glyph-name="W" unicode="W" horiz-adv-x="1186" 
d="M1166 724l-237 -724h-155l-181 605l-181 -605h-153l-239 724h134l182 -606l181 606h152l181 -606l182 606h134z" />
    <glyph glyph-name="X" unicode="X" horiz-adv-x="921" 
d="M908 0h-156l-292 292l-291 -292h-156l369 367l-356 357h156l279 -282l278 282h156l-356 -357z" />
    <glyph glyph-name="Y" unicode="Y" horiz-adv-x="922" 
d="M917 724l-396 -438v-286h-120v286l-396 438h149l308 -338l306 338h149z" />
    <glyph glyph-name="Z" unicode="Z" horiz-adv-x="887" 
d="M837 0h-787v109l598 506h-589v109h751v-109l-598 -506h625v-109z" />
    <glyph glyph-name="bracketleft" unicode="[" horiz-adv-x="450" 
d="M413 -141h-283v934h283v-56h-163v-822h163v-56z" />
    <glyph glyph-name="backslash" unicode="\" horiz-adv-x="542" 
d="M571 -10h-137l-463 734h136z" />
    <glyph glyph-name="bracketright" unicode="]" horiz-adv-x="443" 
d="M321 -141h-283v56h163v822h-163v56h283v-934z" />
    <glyph glyph-name="asciicircum" unicode="^" horiz-adv-x="932" 
d="M767 319h-101l-198 299h-3l-200 -299h-100l263 393h77z" />
    <glyph glyph-name="underscore" unicode="_" 
d="M500 -166v-70h-500v70h500z" />
    <glyph glyph-name="grave" unicode="`" 
d="M313 669h-61l-124 166h116z" />
    <glyph glyph-name="a" unicode="a" horiz-adv-x="845" 
d="M832 0h-132l-71 132h-413l-71 -132h-132l335 615h149zM569 241l-146 272l-147 -272h293z" />
    <glyph glyph-name="b" unicode="b" horiz-adv-x="916" 
d="M748 318q98 -50 98 -152q0 -81 -61.5 -123.5t-179.5 -42.5h-500v615h506q98 0 154 -47t56 -124q0 -78 -73 -126zM613 365q42 0 66.5 19.5t24.5 52.5q0 32 -23 50.5t-64 18.5h-392v-141h388zM605 109q57 0 88.5 19t31.5 51q0 36 -28.5 56.5t-81.5 20.5h-390v-147h380z" />
    <glyph glyph-name="c" unicode="c" horiz-adv-x="904" 
d="M841 467l-110 -38q-96 98 -251 98q-131 0 -209 -60.5t-78 -156.5q0 -99 78 -159t211 -60q154 0 251 101l103 -55q-72 -80 -157 -116.5t-200 -36.5q-184 0 -297.5 91.5t-113.5 234.5q0 148 129 243q113 82 275 82q229 0 369 -168z" />
    <glyph glyph-name="d" unicode="d" horiz-adv-x="920" 
d="M503 615q162 0 260 -85t98 -218q0 -68 -24.5 -121t-78.5 -111q-29 -32 -95 -56t-140 -24h-418v615h398zM531 109q88 0 144.5 55t56.5 140q0 91 -60 146.5t-160 55.5h-287v-397h306z" />
    <glyph glyph-name="e" unicode="e" horiz-adv-x="817" 
d="M767 0h-662v615h639v-109h-519v-132h361v-109h-361v-156h542v-109z" />
    <glyph glyph-name="f" unicode="f" horiz-adv-x="769" 
d="M744 506h-519v-132h361v-109h-361v-265h-120v615h639v-109z" />
    <glyph glyph-name="g" unicode="g" horiz-adv-x="941" 
d="M873 337v-19q0 -150 -109.5 -243t-291.5 -93q-163 0 -275 81q-129 95 -129 246q0 149 129 244q113 83 282 83q204 0 338 -143l-113 -56q-94 90 -232 90q-122 0 -201 -62t-79 -156q0 -97 77 -158t203 -61q189 0 251 138h-277v109h427z" />
    <glyph glyph-name="h" unicode="h" horiz-adv-x="925" 
d="M820 0h-120v265h-475v-265h-120v615h120v-241h475v241h120v-615z" />
    <glyph glyph-name="i" unicode="i" horiz-adv-x="330" 
d="M225 0h-120v615h120v-615z" />
    <glyph glyph-name="j" unicode="j" horiz-adv-x="700" 
d="M595 200q0 -106 -73 -162t-214 -56q-260 0 -274 224h121q7 -64 43.5 -90.5t114.5 -26.5q86 0 124 25t38 86v415h120v-415z" />
    <glyph glyph-name="k" unicode="k" horiz-adv-x="849" 
d="M848 0h-155l-293 312l-175 -126v-186h-120v615h120v-301l419 301h177l-328 -236z" />
    <glyph glyph-name="l" unicode="l" horiz-adv-x="725" 
d="M700 0h-595v615h120v-506h475v-109z" />
    <glyph glyph-name="m" unicode="m" horiz-adv-x="1073" 
d="M968 0h-120v510l-3 -4l-309 -419l-308 423l-3 -4v-506h-120v615h180l251 -348l252 348h180v-615z" />
    <glyph glyph-name="n" unicode="n" horiz-adv-x="927" 
d="M822 0h-179l-418 513v-513h-120v615h179l418 -513v513h120v-615z" />
    <glyph glyph-name="o" unicode="o" horiz-adv-x="945" 
d="M877 309q0 -151 -129 -246q-110 -81 -275 -81q-164 0 -276 81q-129 95 -129 246q0 150 130 244q114 83 275 83q160 0 274 -83q130 -95 130 -244zM752 309q0 95 -78 156.5t-201 61.5q-124 0 -202.5 -62t-78.5 -156q0 -98 77 -158.5t204 -60.5q126 0 202.5 60.5t76.5 158.5
z" />
    <glyph glyph-name="p" unicode="p" horiz-adv-x="836" 
d="M602 615q98 0 156 -53t58 -142q0 -93 -60.5 -143.5t-173.5 -50.5h-357v-226h-120v615h497zM584 335q109 0 109 83q0 46 -28 67t-88 21h-352v-171h359z" />
    <glyph glyph-name="q" unicode="q" horiz-adv-x="945" 
d="M582 -7q-60 -11 -109 -11q-163 0 -276 82q-129 94 -129 245t129 245q112 83 276 83q163 0 275 -83q129 -95 129 -245q0 -185 -182 -278l77 -84l-114 -35zM614 116q138 59 138 193q0 95 -78 157t-201 62q-124 0 -202.5 -62t-78.5 -157q0 -98 76.5 -158.5t204.5 -60.5h18
l-68 72l115 34z" />
    <glyph glyph-name="r" unicode="r" horiz-adv-x="894" 
d="M829 0h-138l-161 226h-305v-226h-120v615h497q98 0 156 -53t58 -142q0 -74 -39 -122.5t-114 -64.5zM584 335q109 0 109 83q0 46 -28 67t-88 21h-352v-171h359z" />
    <glyph glyph-name="s" unicode="s" horiz-adv-x="814" 
d="M662 463q-120 63 -261 63q-205 0 -205 -73q0 -14 6 -24t20.5 -17t30 -11t43.5 -7t52 -5t63.5 -5t71.5 -6q151 -15 218.5 -56t67.5 -129q0 -99 -88.5 -153t-256.5 -54q-237 0 -379 108l65 85q127 -89 312 -89q104 0 161 26.5t57 70.5q0 50 -70 69q-30 8 -71.5 11.5
t-102.5 6t-104 6.5q-114 11 -168 49t-54 111q0 88 86.5 139.5t242.5 51.5q208 0 337 -90z" />
    <glyph glyph-name="t" unicode="t" horiz-adv-x="758" 
d="M733 506h-294v-506h-120v506h-294v109h708v-109z" />
    <glyph glyph-name="u" unicode="u" horiz-adv-x="911" 
d="M813 202q0 -97 -97 -158.5t-260 -61.5q-164 0 -261 61.5t-97 158.5v413h120v-389q0 -66 60.5 -101t177.5 -35q116 0 176.5 35t60.5 101v389h120v-413z" />
    <glyph glyph-name="v" unicode="v" horiz-adv-x="828" 
d="M823 615l-340 -615h-138l-340 615h133l276 -511l276 511h133z" />
    <glyph glyph-name="w" unicode="w" horiz-adv-x="1040" 
d="M1020 615l-209 -615h-144l-147 514l-147 -514h-144l-209 615h133l148 -511l147 511h144l147 -511l148 511h133z" />
    <glyph glyph-name="x" unicode="x" horiz-adv-x="818" 
d="M805 0h-151l-245 241l-245 -241h-151l320 312l-309 303h151l234 -232l234 232h151l-309 -303z" />
    <glyph glyph-name="y" unicode="y" horiz-adv-x="828" 
d="M823 615l-350 -373v-242h-120v242l-348 373h146l263 -280l263 280h146z" />
    <glyph glyph-name="z" unicode="z" horiz-adv-x="767" 
d="M727 0h-687v109l492 397h-485v109h657v-109l-493 -397h516v-109z" />
    <glyph glyph-name="braceleft" unicode="{" horiz-adv-x="413" 
d="M363 -141q-137 0 -185.5 37.5t-48.5 147.5q0 23 1 61.5t1 54.5q0 90 -40 125q-18 16 -69 41q109 48 109 126v183q0 87 46.5 122.5t153.5 35.5h32v-56q-58 0 -85 -28.5t-27 -87.5q0 -8 0.5 -36t0.5 -47q0 -167 -56 -210v-2q57 -43 57 -205q0 -14 -1 -47t-1 -51
q0 -108 109 -108h3v-56z" />
    <glyph glyph-name="bar" unicode="|" horiz-adv-x="625" 
d="M364 -235h-103v1000h103v-1000z" />
    <glyph glyph-name="braceright" unicode="}" horiz-adv-x="405" 
d="M380 326q-65 -27 -89.5 -67.5t-24.5 -117.5q0 -17 3.5 -49.5t3.5 -47.5q0 -108 -48 -146.5t-180 -38.5h-6v56h3q57 0 83 27t26 87q0 13 -1 43t-1 47q0 166 57 207v2q-56 41 -56 209q0 8 0.5 37t0.5 50q0 113 -109 113h-3v56h32q107 0 153.5 -35.5t46.5 -122.5v-183
q0 -78 109 -126z" />
    <glyph glyph-name="asciitilde" unicode="~" horiz-adv-x="932" 
d="M786 310q-41 -46 -85.5 -70.5t-106.5 -24.5q-65 0 -139 37q-74 39 -123 39q-65 0 -130 -76l-57 61q42 47 83.5 71t102.5 24q67 0 141 -37q74 -39 125 -39q64 0 131 75z" />
    <glyph glyph-name="uni00A0" unicode="&#xa0;" horiz-adv-x="300" 
 />
    <glyph glyph-name="exclamdown" unicode="&#xa1;" horiz-adv-x="357" 
d="M261 615h-155v109h155v-109zM260 0h-152v55l28 478h96l28 -478v-55z" />
    <glyph glyph-name="cent" unicode="&#xa2;" horiz-adv-x="790" 
d="M715 474l-106 -36q-61 60 -147 72v-293q88 9 149 71l99 -51q-98 -112 -248 -126v-111h-120v111q-131 22 -199 86.5t-68 164.5q0 97 68.5 162t198.5 90v110h120v-112q154 -18 253 -138zM342 216v293q-65 -18 -100 -56.5t-35 -90.5q0 -53 34.5 -91t100.5 -55z" />
    <glyph glyph-name="sterling" unicode="&#xa3;" horiz-adv-x="733" 
d="M704 31q-82 -37 -146 -37q-37 0 -124 16t-137 16q-94 0 -188 -50l-68 108q120 94 120 197q0 18 -8 48h-119v96h88q-11 42 -11 73q0 108 82.5 172t225.5 64q145 0 266 -96l-60 -91q-97 79 -217 79q-177 0 -177 -131q0 -28 14 -70h261v-96h-237q6 -32 6 -59q0 -91 -57 -143
q36 3 59 3q50 0 136.5 -14.5t122.5 -14.5q58 0 113 29z" />
    <glyph glyph-name="currency" unicode="&#xa4;" horiz-adv-x="750" 
d="M615 175l-56 -57l-68 67q-52 -35 -116 -35q-65 0 -115 35l-69 -67l-56 57l69 65q-35 55 -35 114q0 64 35 114l-69 66l56 57l69 -67q52 35 115 35q65 0 115 -35l69 67l56 -57l-69 -66q36 -52 36 -114q0 -58 -36 -114zM502 355q0 53 -38.5 89t-87.5 36q-54 0 -90.5 -37
t-36.5 -88q0 -52 37 -89t89 -37t89.5 37t37.5 89z" />
    <glyph glyph-name="yen" unicode="&#xa5;" horiz-adv-x="944" 
d="M924 724l-270 -299h98v-96h-185l-39 -43v-42h224v-96h-224v-148h-120v148h-224v96h224v42l-39 43h-185v96h98l-270 299h149l308 -338l306 338h149z" />
    <glyph glyph-name="brokenbar" unicode="&#xa6;" 
d="M287 699v-370h-73v370h73zM287 199v-370h-73v370h73z" />
    <glyph glyph-name="section" unicode="&#xa7;" horiz-adv-x="904" 
d="M705 656q-141 71 -285 71q-92 0 -142 -21t-50 -57q0 -37 54 -55q25 -8 59 -12t89.5 -7.5t88.5 -6.5q155 -16 223.5 -56.5t68.5 -130.5q0 -77 -61 -119q48 -49 48 -115q0 -101 -89.5 -156t-257.5 -55q-242 0 -382 109l67 88q154 -96 319 -96q104 0 161 28t57 75
q0 54 -70 73q-31 9 -73 13t-105 6.5t-105 6.5q-117 11 -171.5 49.5t-54.5 112.5q0 79 67 122q-54 44 -54 112q0 90 84 142t237 52q221 0 348 -97zM651 312q35 26 35 62q0 64 -104 82q-40 7 -138.5 10.5t-157.5 12.5q-71 -20 -71 -64q0 -56 135 -71q23 -2 80.5 -5t112.5 -9
t108 -18z" />
    <glyph glyph-name="dieresis" unicode="&#xa8;" 
d="M415 746q0 -25 -19 -43.5t-45 -18.5t-44.5 18t-18.5 44t18.5 45t44.5 19q25 0 44.5 -19t19.5 -45zM214 746q0 -25 -19 -43.5t-45 -18.5t-44.5 18t-18.5 44t18.5 45t44.5 19t45 -19t19 -45z" />
    <glyph glyph-name="copyright" unicode="&#xa9;" horiz-adv-x="833" 
d="M775 354q0 -149 -103 -252q-107 -107 -256 -107q-146 0 -252 106t-106 253q0 148 107 255q104 104 251 104q151 0 256 -105q103 -103 103 -254zM733 354q0 130 -92 224q-92 92 -225 92q-130 0 -221 -91q-94 -94 -94 -225q0 -129 93 -222t222 -93q132 0 226 94
q91 91 91 221zM588 274q-34 -140 -173 -140q-86 0 -137 58.5t-51 159.5q0 103 52.5 163t140.5 60q129 0 163 -130h-63q-27 80 -98 80q-60 0 -92.5 -44.5t-32.5 -127.5q0 -80 33.5 -124t91.5 -44q76 0 103 89h63z" />
    <glyph glyph-name="ordfeminine" unicode="&#xaa;" horiz-adv-x="558" 
d="M558 311h-99l-47 87h-266l-47 -87h-99l227 415h104zM367 480l-88 164l-88 -164h176z" />
    <glyph glyph-name="guillemotleft" unicode="&#xab;" horiz-adv-x="724" 
d="M649 484l-161 -163l159 -162h-147l-166 162l170 163h145zM390 484l-162 -163l159 -162h-147l-165 162l169 163h146z" />
    <glyph glyph-name="logicalnot" unicode="&#xac;" horiz-adv-x="932" 
d="M763 142h-80v189h-514v80h594v-269z" />
    <glyph glyph-name="uni00AD" unicode="&#xad;" horiz-adv-x="531" 
d="M471 265h-411v109h411v-109z" />
    <glyph glyph-name="registered" unicode="&#xae;" horiz-adv-x="379" 
d="M344 571q0 -63 -46 -108.5t-112 -45.5q-63 0 -107 45.5t-44 111.5q0 61 45.5 106t108.5 45q66 0 110.5 -44.5t44.5 -109.5zM321 571q0 55 -37.5 92.5t-94.5 37.5q-55 0 -92.5 -37.5t-37.5 -92.5t38 -93.5t92 -38.5q55 0 93.5 38.5t38.5 93.5zM260 487h-40l-32 69h-24v-69
h-35v167h59q71 0 71 -49q0 -31 -36 -44zM188 579q33 0 33 24t-35 24h-22v-48h24z" />
    <glyph glyph-name="macron" unicode="&#xaf;" 
d="M421 701h-343v74h343v-74z" />
    <glyph glyph-name="degree" unicode="&#xb0;" horiz-adv-x="532" 
d="M448 559q0 -71 -55 -123q-51 -49 -126 -49t-127 49q-55 52 -55 123t55 123q51 49 127 49q75 0 126 -49q55 -52 55 -123zM376 559q0 44 -32 75t-77 31q-46 0 -78 -31t-32 -75q0 -43 32 -73.5t78 -30.5t77.5 30.5t31.5 73.5z" />
    <glyph glyph-name="plusminus" unicode="&#xb1;" horiz-adv-x="932" 
d="M763 0h-594v80h594v-80zM763 347h-258v-201h-80v201h-256v80h256v201h80v-201h258v-80z" />
    <glyph glyph-name="twosuperior" unicode="&#xb2;" horiz-adv-x="553" 
d="M506 289h-486q4 82 52.5 134.5t146.5 80.5q22 6 56.5 14.5t58 15.5t40.5 15q34 18 34 47q0 31 -34 49.5t-95 18.5q-103 0 -187 -61l-50 48q109 78 239 78q94 0 153.5 -39t59.5 -99q0 -45 -31 -73.5t-95 -44.5q-18 -5 -65.5 -15.5t-72.5 -17.5q-86 -27 -116 -86h392v-65z
" />
    <glyph glyph-name="threesuperior" unicode="&#xb3;" horiz-adv-x="568" 
d="M412 518q97 -31 97 -107q0 -60 -66 -94.5t-187 -34.5q-154 0 -246 89l53 48q84 -71 202 -71q78 0 119 19t41 53q0 65 -190 65h-38v58h73q133 0 133 65q0 56 -130 56q-98 0 -183 -49l-45 45q109 69 228 69q100 0 156 -32t56 -86q0 -64 -73 -93z" />
    <glyph glyph-name="acute" unicode="&#xb4;" 
d="M374 835l-124 -166h-61l69 166h116z" />
    <glyph glyph-name="mu" unicode="&#xb5;" horiz-adv-x="562" 
d="M188 523l-63 -293q-7 -31 -7 -65q0 -49 25.5 -75t72.5 -26q66 0 103 46.5t59 150.5l56 262h87l-76 -357q-11 -53 -11 -65q0 -18 8 -25.5t27 -7.5q10 0 16 1l-15 -70q-24 -5 -53 -5q-31 0 -47.5 14.5t-25.5 48.5q-43 -64 -132 -64q-77 0 -125 57l-54 -259h-88l155 732h88z
" />
    <glyph glyph-name="paragraph" unicode="&#xb6;" horiz-adv-x="945" 
d="M796 -165h-120v441h-130v-441h-120v441h-112q-129 0 -196.5 57t-67.5 165q0 103 65 164.5t176 61.5h505v-889zM676 385v230h-130v-230h130zM426 385v230h-106q-147 0 -147 -119q0 -111 139 -111h114z" />
    <glyph glyph-name="periodcentered" unicode="&#xb7;" horiz-adv-x="465" 
d="M310 265h-155v109h155v-109z" />
    <glyph glyph-name="cedilla" unicode="&#xb8;" 
d="M251 -46q80 -8 80 -76q0 -37 -29.5 -60.5t-79.5 -23.5q-48 0 -96 19l19 36q31 -12 52 -12q22 0 36.5 11.5t14.5 26.5q0 11 -7 17.5t-18 6.5q-15 0 -27 -17l-31 14l59 111h60z" />
    <glyph glyph-name="onesuperior" unicode="&#xb9;" horiz-adv-x="253" 
d="M174 289h-79v362l-77 -30v63q43 11 78 39h78v-434z" />
    <glyph glyph-name="ordmasculine" unicode="&#xba;" horiz-adv-x="608" 
d="M568 521q0 -94 -73.5 -154t-190.5 -60q-116 0 -190 60.5t-74 153.5q0 91 74.5 152.5t189.5 61.5t189.5 -61t74.5 -153zM477 521q0 58 -48 95.5t-125 37.5t-125 -37.5t-48 -95.5q0 -60 47.5 -97t125.5 -37t125.5 37.5t47.5 96.5z" />
    <glyph glyph-name="guillemotright" unicode="&#xbb;" horiz-adv-x="724" 
d="M649 321l-165 -162h-147l159 162l-162 163h146zM390 321l-166 -162h-147l159 162l-161 163h145z" />
    <glyph glyph-name="onequarter" unicode="&#xbc;" horiz-adv-x="1046" 
d="M166 318h-75v338l-73 -28v58q40 12 73 37h75v-405zM780 724l-647 -734h-137l648 734h136zM1031 80h-104v-80h-76v80h-300v61l302 264h74v-264h104v-61zM851 141v193l-220 -193h220z" />
    <glyph glyph-name="onehalf" unicode="&#xbd;" horiz-adv-x="1063" 
d="M166 318h-75v338l-73 -28v58q40 12 73 37h75v-405zM780 724l-647 -734h-137l648 734h136zM1018 0h-463q7 150 189 201l53.5 13t56 14t38.5 14q32 17 32 44q0 29 -32.5 46.5t-90.5 17.5q-98 0 -178 -57l-48 45q104 72 228 72q90 0 146.5 -36t56.5 -92q0 -42 -29 -68.5
t-91 -42.5q-18 -5 -63 -14t-69 -16q-81 -26 -110 -80h374v-61z" />
    <glyph glyph-name="threequarters" unicode="&#xbe;" horiz-adv-x="1347" 
d="M393 531q93 -27 93 -99q0 -56 -63 -88t-179 -32q-147 0 -235 82l51 45q82 -66 193 -66q153 0 153 68q0 60 -182 60h-36v54h70q61 0 94 16t33 44q0 53 -124 53q-94 0 -175 -45l-43 41q104 64 217 64q96 0 149.5 -29.5t53.5 -80.5q0 -58 -70 -87zM1081 724l-647 -734h-137
l648 734h136zM1332 80h-104v-80h-76v80h-300v61l302 264h74v-264h104v-61zM1152 141v193l-220 -193h220z" />
    <glyph glyph-name="questiondown" unicode="&#xbf;" horiz-adv-x="727" 
d="M521 615h-155v109h155v-109zM705 134q-133 -139 -332 -139q-153 0 -240 58t-87 156q0 71 35 110.5t116 62.5q19 6 49.5 13t51 13t35.5 14q60 29 64 111h97q1 -13 1 -24q0 -75 -38 -120t-122 -75q-13 -5 -38.5 -13.5l-36 -12t-28.5 -11t-25 -13.5t-16.5 -15t-12.5 -20
t-3 -24q0 -50 50.5 -77t147.5 -27q159 0 249 98z" />
    <glyph glyph-name="Agrave" unicode="&#xc0;" horiz-adv-x="947" 
d="M932 0h-131l-84 162h-487l-84 -162h-131l383 724h151zM658 271l-184 350l-185 -350h369zM537 780h-61l-124 166h116z" />
    <glyph glyph-name="Aacute" unicode="&#xc1;" horiz-adv-x="947" 
d="M932 0h-131l-84 162h-487l-84 -162h-131l383 724h151zM658 271l-184 350l-185 -350h369zM598 946l-124 -166h-61l69 166h116z" />
    <glyph glyph-name="Acircumflex" unicode="&#xc2;" horiz-adv-x="947" 
d="M932 0h-131l-84 162h-487l-84 -162h-131l383 724h151zM658 271l-184 350l-185 -350h369zM667 779h-102l-91 99l-91 -99h-102l153 166h80z" />
    <glyph glyph-name="Atilde" unicode="&#xc3;" horiz-adv-x="947" 
d="M932 0h-131l-84 162h-487l-84 -162h-131l383 724h151zM658 271l-184 350l-185 -350h369zM644 880q-45 -84 -103 -84q-30 0 -74 18.5t-55 18.5q-24 0 -53 -48l-59 46q35 41 59 59.5t49 18.5t68 -19t60 -19q16 0 27.5 10.5t26.5 35.5z" />
    <glyph glyph-name="Adieresis" unicode="&#xc4;" horiz-adv-x="947" 
d="M932 0h-131l-84 162h-487l-84 -162h-131l383 724h151zM658 271l-184 350l-185 -350h369zM639 857q0 -25 -19 -43.5t-45 -18.5t-44.5 18t-18.5 44t18.5 45t44.5 19q25 0 44.5 -19.5t19.5 -44.5zM438 857q0 -25 -19 -43.5t-45 -18.5t-44.5 18t-18.5 44t18.5 45t44.5 19
t45 -19t19 -45z" />
    <glyph glyph-name="Aring" unicode="&#xc5;" horiz-adv-x="947" 
d="M587 871q0 -39 -32 -65.5t-81 -26.5q-48 0 -80 26.5t-32 65.5t32 66t80 27t80.5 -27t32.5 -66zM932 0h-131l-84 162h-487l-84 -162h-131l383 724h151zM527 871q0 17 -15.5 29.5t-37.5 12.5q-23 0 -37.5 -12.5t-14.5 -29.5q0 -18 14 -29.5t38 -11.5q23 0 38 12t15 29z
M658 271l-184 350l-185 -350h369z" />
    <glyph glyph-name="AE" unicode="&#xc6;" horiz-adv-x="1402" 
d="M1342 0h-758v162h-324l-113 -162h-132l511 724h788v-109h-610v-185h424v-109h-424v-212h638v-109zM584 271v349l-246 -349h246z" />
    <glyph glyph-name="Ccedilla" unicode="&#xc7;" horiz-adv-x="1046" 
d="M966 559l-109 -39q-110 117 -308 117q-150 0 -244.5 -77t-94.5 -196q0 -123 93.5 -198.5t252.5 -75.5q192 0 302 119l103 -57q-146 -172 -399 -172h-5l-16 -26q80 -8 80 -76q0 -37 -29.5 -60.5t-79.5 -23.5q-48 0 -96 19l19 36q31 -12 52 -12q22 0 36.5 11.5t14.5 26.5
q0 11 -7 17.5t-18 6.5q-15 0 -27 -17l-31 14l46 86q-198 22 -307 123.5t-109 258.5q0 175 147 286q127 97 317 97q273 0 417 -188z" />
    <glyph glyph-name="Egrave" unicode="&#xc8;" horiz-adv-x="939" 
d="M879 0h-758v724h730v-109h-610v-185h424v-109h-424v-212h638v-109zM542 780h-61l-124 166h116z" />
    <glyph glyph-name="Eacute" unicode="&#xc9;" horiz-adv-x="939" 
d="M879 0h-758v724h730v-109h-610v-185h424v-109h-424v-212h638v-109zM603 946l-124 -166h-61l69 166h116z" />
    <glyph glyph-name="Ecircumflex" unicode="&#xca;" horiz-adv-x="939" 
d="M879 0h-758v724h730v-109h-610v-185h424v-109h-424v-212h638v-109zM672 779h-102l-91 99l-91 -99h-102l153 166h80z" />
    <glyph glyph-name="Edieresis" unicode="&#xcb;" horiz-adv-x="939" 
d="M879 0h-758v724h730v-109h-610v-185h424v-109h-424v-212h638v-109zM644 857q0 -25 -19 -43.5t-45 -18.5t-44.5 18t-18.5 44t18.5 45t44.5 19t45 -19.5t19 -44.5zM443 857q0 -25 -19 -43.5t-45 -18.5t-44.5 18t-18.5 44t18.5 45t44.5 19t45 -19t19 -45z" />
    <glyph glyph-name="Igrave" unicode="&#xcc;" horiz-adv-x="362" 
d="M241 0h-120v724h120v-724zM244 780h-61l-124 166h116z" />
    <glyph glyph-name="Iacute" unicode="&#xcd;" horiz-adv-x="362" 
d="M241 0h-120v724h120v-724zM305 946l-124 -166h-61l69 166h116z" />
    <glyph glyph-name="Icircumflex" unicode="&#xce;" horiz-adv-x="362" 
d="M241 0h-120v724h120v-724zM374 779h-102l-91 99l-91 -99h-102l153 166h80z" />
    <glyph glyph-name="Idieresis" unicode="&#xcf;" horiz-adv-x="362" 
d="M241 0h-120v724h120v-724zM346 857q0 -25 -19 -43.5t-45 -18.5t-44.5 18t-18.5 44t18.5 45t44.5 19t45 -19.5t19 -44.5zM145 857q0 -25 -19 -43.5t-45 -18.5t-44.5 18t-18.5 44t18.5 45t44.5 19t45 -19t19 -45z" />
    <glyph glyph-name="Eth" unicode="&#xd0;" horiz-adv-x="1065" 
d="M579 724q189 0 299.5 -100.5t110.5 -269.5q0 -156 -117 -258q-108 -96 -270 -96h-481v324h-72v109h72v291h458zM612 109q108 0 177.5 69.5t69.5 178.5q0 116 -74.5 187t-195.5 71h-348v-182h335v-109h-335v-215h371z" />
    <glyph glyph-name="Ntilde" unicode="&#xd1;" horiz-adv-x="1064" 
d="M943 0h-148l-554 594v-594h-120v724h149l553 -594v594h120v-724zM702 880q-45 -84 -103 -84q-30 0 -74 18.5t-55 18.5q-24 0 -53 -48l-59 46q35 41 59 59.5t49 18.5t68 -19t60 -19q16 0 27.5 10.5t26.5 35.5z" />
    <glyph glyph-name="Ograve" unicode="&#xd2;" horiz-adv-x="1096" 
d="M1013 363q0 -178 -146 -288q-128 -96 -318 -96q-192 0 -320 97q-146 110 -146 287q0 174 148 286q130 98 318 98t317 -98q147 -112 147 -286zM888 363q0 127 -108 206q-94 68 -231 68q-151 0 -246 -77.5t-95 -196.5q0 -123 93 -198.5t248 -75.5q154 0 246.5 76t92.5 198z
M611 780h-61l-124 166h116z" />
    <glyph glyph-name="Oacute" unicode="&#xd3;" horiz-adv-x="1096" 
d="M1013 363q0 -178 -146 -288q-128 -96 -318 -96q-192 0 -320 97q-146 110 -146 287q0 174 148 286q130 98 318 98t317 -98q147 -112 147 -286zM888 363q0 127 -108 206q-94 68 -231 68q-151 0 -246 -77.5t-95 -196.5q0 -123 93 -198.5t248 -75.5q154 0 246.5 76t92.5 198z
M672 946l-124 -166h-61l69 166h116z" />
    <glyph glyph-name="Ocircumflex" unicode="&#xd4;" horiz-adv-x="1096" 
d="M1013 363q0 -178 -146 -288q-128 -96 -318 -96q-192 0 -320 97q-146 110 -146 287q0 174 148 286q130 98 318 98t317 -98q147 -112 147 -286zM888 363q0 127 -108 206q-94 68 -231 68q-151 0 -246 -77.5t-95 -196.5q0 -123 93 -198.5t248 -75.5q154 0 246.5 76t92.5 198z
M741 779h-102l-91 99l-91 -99h-102l153 166h80z" />
    <glyph glyph-name="Otilde" unicode="&#xd5;" horiz-adv-x="1096" 
d="M1013 363q0 -178 -146 -288q-128 -96 -318 -96q-192 0 -320 97q-146 110 -146 287q0 174 148 286q130 98 318 98t317 -98q147 -112 147 -286zM888 363q0 127 -108 206q-94 68 -231 68q-151 0 -246 -77.5t-95 -196.5q0 -123 93 -198.5t248 -75.5q154 0 246.5 76t92.5 198z
M718 880q-45 -84 -103 -84q-30 0 -74 18.5t-55 18.5q-24 0 -53 -48l-59 46q35 41 59 59.5t49 18.5t68 -19t60 -19q16 0 27.5 10.5t26.5 35.5z" />
    <glyph glyph-name="Odieresis" unicode="&#xd6;" horiz-adv-x="1096" 
d="M1013 363q0 -178 -146 -288q-128 -96 -318 -96q-192 0 -320 97q-146 110 -146 287q0 174 148 286q130 98 318 98t317 -98q147 -112 147 -286zM888 363q0 127 -108 206q-94 68 -231 68q-151 0 -246 -77.5t-95 -196.5q0 -123 93 -198.5t248 -75.5q154 0 246.5 76t92.5 198z
M713 857q0 -25 -19 -43.5t-45 -18.5t-44.5 18t-18.5 44t18.5 45t44.5 19q25 0 44.5 -19.5t19.5 -44.5zM512 857q0 -25 -19 -43.5t-45 -18.5t-44.5 18t-18.5 44t18.5 45t44.5 19t45 -19t19 -45z" />
    <glyph glyph-name="multiply" unicode="&#xd7;" horiz-adv-x="932" 
d="M741 64l-57 -56l-218 220l-217 -219l-57 57l217 216l-220 221l55 57l222 -221l222 221l54 -58l-220 -220z" />
    <glyph glyph-name="Oslash" unicode="&#xd8;" horiz-adv-x="1096" 
d="M836 669q177 -112 177 -306q0 -177 -146 -288q-126 -96 -318 -96q-120 0 -240 50l-61 -73h-95l91 110q-161 110 -161 297q0 174 148 286q130 98 318 98q109 0 221 -44l61 74h94zM382 119q81 -30 167 -30q154 0 246.5 76t92.5 198q0 132 -125 217zM695 613q-73 24 -146 24
q-138 0 -232 -68q-109 -78 -109 -206q0 -124 108 -209z" />
    <glyph glyph-name="Ugrave" unicode="&#xd9;" horiz-adv-x="1052" 
d="M936 234q0 -113 -111 -184.5t-298 -71.5t-299 72t-112 184v490h120v-461q0 -85 74.5 -130t216.5 -45t215.5 45t73.5 130v461h120v-490zM589 780h-61l-124 166h116z" />
    <glyph glyph-name="Uacute" unicode="&#xda;" horiz-adv-x="1052" 
d="M936 234q0 -113 -111 -184.5t-298 -71.5t-299 72t-112 184v490h120v-461q0 -85 74.5 -130t216.5 -45t215.5 45t73.5 130v461h120v-490zM650 946l-124 -166h-61l69 166h116z" />
    <glyph glyph-name="Ucircumflex" unicode="&#xdb;" horiz-adv-x="1052" 
d="M936 234q0 -113 -111 -184.5t-298 -71.5t-299 72t-112 184v490h120v-461q0 -85 74.5 -130t216.5 -45t215.5 45t73.5 130v461h120v-490zM719 779h-102l-91 99l-91 -99h-102l153 166h80z" />
    <glyph glyph-name="Udieresis" unicode="&#xdc;" horiz-adv-x="1052" 
d="M936 234q0 -113 -111 -184.5t-298 -71.5t-299 72t-112 184v490h120v-461q0 -85 74.5 -130t216.5 -45t215.5 45t73.5 130v461h120v-490zM691 857q0 -25 -19 -43.5t-45 -18.5t-44.5 18t-18.5 44t18.5 45t44.5 19q25 0 44.5 -19.5t19.5 -44.5zM490 857q0 -25 -19 -43.5
t-45 -18.5t-44.5 18t-18.5 44t18.5 45t44.5 19t45 -19t19 -45z" />
    <glyph glyph-name="Yacute" unicode="&#xdd;" horiz-adv-x="922" 
d="M917 724l-396 -438v-286h-120v286l-396 438h149l308 -338l306 338h149zM585 946l-124 -166h-61l69 166h116z" />
    <glyph glyph-name="Thorn" unicode="&#xde;" horiz-adv-x="953" 
d="M695 615q111 0 176 -61.5t65 -164.5q0 -108 -67.5 -165t-196.5 -57h-431v-167h-120v724h120v-109h454zM674 276q139 0 139 111q0 119 -147 119h-425v-230h433z" />
    <glyph glyph-name="germandbls" unicode="&#xdf;" horiz-adv-x="1583" 
d="M1431 463q-120 63 -262 63q-204 0 -204 -73q0 -14 6 -24t20 -17t30 -11t43.5 -7t51.5 -5t64 -5t72 -6q150 -15 218 -56t68 -129q0 -98 -89 -152.5t-256 -54.5q-237 0 -379 108l65 85q127 -89 312 -89q104 0 161 26.5t57 70.5q0 50 -70 69q-30 8 -71.5 11.5t-102.5 6
t-104 6.5q-114 11 -168 49t-54 111q0 88 86 139.5t242 51.5q207 0 337 -90zM662 463q-120 63 -261 63q-205 0 -205 -73q0 -14 6 -24t20.5 -17t30 -11t43.5 -7t52 -5t63.5 -5t71.5 -6q151 -15 218.5 -56t67.5 -129q0 -99 -88.5 -153t-256.5 -54q-237 0 -379 108l65 85
q127 -89 312 -89q104 0 161 26.5t57 70.5q0 50 -70 69q-30 8 -71.5 11.5t-102.5 6t-104 6.5q-114 11 -168 49t-54 111q0 88 86.5 139.5t242.5 51.5q208 0 337 -90z" />
    <glyph glyph-name="agrave" unicode="&#xe0;" horiz-adv-x="845" 
d="M832 0h-132l-71 132h-413l-71 -132h-132l335 615h149zM569 241l-146 272l-147 -272h293zM486 669h-61l-124 166h116z" />
    <glyph glyph-name="aacute" unicode="&#xe1;" horiz-adv-x="845" 
d="M832 0h-132l-71 132h-413l-71 -132h-132l335 615h149zM569 241l-146 272l-147 -272h293zM547 835l-124 -166h-61l69 166h116z" />
    <glyph glyph-name="acircumflex" unicode="&#xe2;" horiz-adv-x="845" 
d="M832 0h-132l-71 132h-413l-71 -132h-132l335 615h149zM569 241l-146 272l-147 -272h293zM616 668h-102l-91 99l-91 -99h-102l153 166h80z" />
    <glyph glyph-name="atilde" unicode="&#xe3;" horiz-adv-x="845" 
d="M832 0h-132l-71 132h-413l-71 -132h-132l335 615h149zM569 241l-146 272l-147 -272h293zM593 769q-45 -84 -103 -84q-30 0 -74 18.5t-55 18.5q-25 0 -53 -48l-59 46q35 41 59 59.5t49 18.5t68 -19t60 -19q16 0 27.5 10.5t26.5 35.5z" />
    <glyph glyph-name="adieresis" unicode="&#xe4;" horiz-adv-x="845" 
d="M832 0h-132l-71 132h-413l-71 -132h-132l335 615h149zM569 241l-146 272l-147 -272h293zM588 746q0 -25 -19 -43.5t-45 -18.5t-44.5 18t-18.5 44t18.5 45t44.5 19t45 -19t19 -45zM387 746q0 -25 -19 -43.5t-45 -18.5t-44.5 18t-18.5 44t18.5 45t44.5 19t45 -19t19 -45z
" />
    <glyph glyph-name="aring" unicode="&#xe5;" horiz-adv-x="845" 
d="M536 763q0 -39 -32.5 -65.5t-80.5 -26.5t-80 26.5t-32 65.5t32 66t80 27t80.5 -27t32.5 -66zM832 0h-132l-71 132h-413l-71 -132h-132l335 615h149zM476 763q0 17 -15 29.5t-38 12.5t-38 -12.5t-15 -29.5t15 -29t38 -12q22 0 37.5 12t15.5 29zM569 241l-146 272
l-147 -272h293z" />
    <glyph glyph-name="ae" unicode="&#xe6;" horiz-adv-x="1217" 
d="M1167 0h-662v132h-274l-98 -132h-120l447 615h684v-109h-519v-132h361v-109h-361v-156h542v-109zM505 241v268l-195 -268h195z" />
    <glyph glyph-name="ccedilla" unicode="&#xe7;" horiz-adv-x="904" 
d="M841 467l-110 -38q-98 98 -259 98q-124 0 -201.5 -61t-77.5 -156q0 -97 76.5 -158t202.5 -61q84 0 146 23.5t115 77.5l103 -55q-133 -152 -347 -153l-19 -30q80 -8 80 -76q0 -37 -29.5 -60.5t-79.5 -23.5q-48 0 -96 19l19 36q32 -12 52 -12q22 0 36.5 11.5t14.5 26.5
q0 11 -7 17.5t-18 6.5q-15 0 -27 -17l-31 14l48 89q-173 18 -268.5 105t-95.5 220q0 148 129 243q113 82 275 82q226 0 369 -168z" />
    <glyph glyph-name="egrave" unicode="&#xe8;" horiz-adv-x="817" 
d="M767 0h-662v615h639v-109h-519v-132h361v-109h-361v-156h542v-109zM478 669h-61l-124 166h116z" />
    <glyph glyph-name="eacute" unicode="&#xe9;" horiz-adv-x="817" 
d="M767 0h-662v615h639v-109h-519v-132h361v-109h-361v-156h542v-109zM539 835l-124 -166h-61l69 166h116z" />
    <glyph glyph-name="ecircumflex" unicode="&#xea;" horiz-adv-x="817" 
d="M767 0h-662v615h639v-109h-519v-132h361v-109h-361v-156h542v-109zM608 668h-102l-91 99l-91 -99h-102l153 166h80z" />
    <glyph glyph-name="edieresis" unicode="&#xeb;" horiz-adv-x="817" 
d="M767 0h-662v615h639v-109h-519v-132h361v-109h-361v-156h542v-109zM580 746q0 -25 -19 -43.5t-45 -18.5t-44.5 18t-18.5 44t18.5 45t44.5 19t45 -19t19 -45zM379 746q0 -25 -19 -43.5t-45 -18.5t-44.5 18t-18.5 44t18.5 45t44.5 19t45 -19t19 -45z" />
    <glyph glyph-name="igrave" unicode="&#xec;" horiz-adv-x="330" 
d="M225 0h-120v615h120v-615zM228 669h-61l-124 166h116z" />
    <glyph glyph-name="iacute" unicode="&#xed;" horiz-adv-x="330" 
d="M225 0h-120v615h120v-615zM289 835l-124 -166h-61l69 166h116z" />
    <glyph glyph-name="icircumflex" unicode="&#xee;" horiz-adv-x="330" 
d="M225 0h-120v615h120v-615zM358 668h-102l-91 99l-91 -99h-102l153 166h80z" />
    <glyph glyph-name="idieresis" unicode="&#xef;" horiz-adv-x="330" 
d="M225 0h-120v615h120v-615zM330 746q0 -25 -19 -43.5t-45 -18.5t-44.5 18t-18.5 44t18.5 45t44.5 19t45 -19t19 -45zM129 746q0 -25 -19 -43.5t-45 -18.5t-44.5 18t-18.5 44t18.5 45t44.5 19t45 -19t19 -45z" />
    <glyph glyph-name="eth" unicode="&#xf0;" horiz-adv-x="920" 
d="M502 615q162 0 260 -85t98 -218q0 -134 -104 -232q-31 -31 -98.5 -55.5t-135.5 -24.5h-418v258h-50v109h50v248h398zM530 109q88 0 144.5 55t56.5 140q0 91 -60 146.5t-160 55.5h-287v-139h287v-109h-287v-149h306z" />
    <glyph glyph-name="ntilde" unicode="&#xf1;" horiz-adv-x="927" 
d="M822 0h-179l-418 513v-513h-120v615h179l418 -513v513h120v-615zM634 769q-45 -84 -103 -84q-30 0 -74 18.5t-55 18.5q-24 0 -53 -48l-59 46q35 41 59 59.5t49 18.5t68 -19t60 -19q16 0 27.5 10.5t26.5 35.5z" />
    <glyph glyph-name="ograve" unicode="&#xf2;" horiz-adv-x="945" 
d="M877 309q0 -151 -129 -246q-110 -81 -275 -81q-164 0 -276 81q-129 95 -129 246q0 150 130 244q114 83 275 83q160 0 274 -83q130 -95 130 -244zM752 309q0 95 -78 156.5t-201 61.5q-124 0 -202.5 -62t-78.5 -156q0 -98 77 -158.5t204 -60.5q126 0 202.5 60.5t76.5 158.5
zM536 669h-61l-124 166h116z" />
    <glyph glyph-name="oacute" unicode="&#xf3;" horiz-adv-x="945" 
d="M877 309q0 -151 -129 -246q-110 -81 -275 -81q-164 0 -276 81q-129 95 -129 246q0 150 130 244q114 83 275 83q160 0 274 -83q130 -95 130 -244zM752 309q0 95 -78 156.5t-201 61.5q-124 0 -202.5 -62t-78.5 -156q0 -98 77 -158.5t204 -60.5q126 0 202.5 60.5t76.5 158.5
zM597 835l-124 -166h-61l69 166h116z" />
    <glyph glyph-name="ocircumflex" unicode="&#xf4;" horiz-adv-x="945" 
d="M877 309q0 -151 -129 -246q-110 -81 -275 -81q-164 0 -276 81q-129 95 -129 246q0 150 130 244q114 83 275 83q160 0 274 -83q130 -95 130 -244zM752 309q0 95 -78 156.5t-201 61.5q-124 0 -202.5 -62t-78.5 -156q0 -98 77 -158.5t204 -60.5q126 0 202.5 60.5t76.5 158.5
zM666 668h-102l-91 99l-91 -99h-102l153 166h80z" />
    <glyph glyph-name="otilde" unicode="&#xf5;" horiz-adv-x="945" 
d="M877 309q0 -151 -129 -246q-110 -81 -275 -81q-164 0 -276 81q-129 95 -129 246q0 150 130 244q114 83 275 83q160 0 274 -83q130 -95 130 -244zM752 309q0 95 -78 156.5t-201 61.5q-124 0 -202.5 -62t-78.5 -156q0 -98 77 -158.5t204 -60.5q126 0 202.5 60.5t76.5 158.5
zM643 769q-45 -84 -103 -84q-30 0 -74 18.5t-55 18.5q-25 0 -53 -48l-59 46q35 41 59 59.5t49 18.5t68 -19t60 -19q16 0 27.5 10.5t26.5 35.5z" />
    <glyph glyph-name="odieresis" unicode="&#xf6;" horiz-adv-x="945" 
d="M877 309q0 -151 -129 -246q-110 -81 -275 -81q-164 0 -276 81q-129 95 -129 246q0 150 130 244q114 83 275 83q160 0 274 -83q130 -95 130 -244zM752 309q0 95 -78 156.5t-201 61.5q-124 0 -202.5 -62t-78.5 -156q0 -98 77 -158.5t204 -60.5q126 0 202.5 60.5t76.5 158.5
zM638 746q0 -25 -19 -43.5t-45 -18.5t-44.5 18t-18.5 44t18.5 45t44.5 19t45 -19t19 -45zM437 746q0 -25 -19 -43.5t-45 -18.5t-44.5 18t-18.5 44t18.5 45t44.5 19t45 -19t19 -45z" />
    <glyph glyph-name="divide" unicode="&#xf7;" horiz-adv-x="833" 
d="M417 540q25 0 43 -18.5t18 -43.5t-18 -43t-43 -18t-43 17.5t-18 43.5q0 25 18 43.5t43 18.5zM709 332v-68h-585v68h585zM417 179q25 0 43 -18t18 -43t-18 -43t-43 -18q-26 0 -43.5 17.5t-17.5 43.5q0 25 18 43t43 18z" />
    <glyph glyph-name="oslash" unicode="&#xf8;" horiz-adv-x="945" 
d="M727 566q150 -95 150 -257q0 -151 -129 -246q-110 -81 -275 -81q-99 0 -198 39l-55 -66h-92l83 99q-143 95 -143 255q0 150 130 244q114 83 275 83q93 0 191 -37l47 55h91zM349 110q57 -20 124 -20q126 0 202.5 60.5t76.5 158.5q0 103 -98 170zM589 509q-60 18 -116 18
q-124 0 -202.5 -62t-78.5 -156q0 -102 91 -168z" />
    <glyph glyph-name="ugrave" unicode="&#xf9;" horiz-adv-x="911" 
d="M813 202q0 -97 -97 -158.5t-260 -61.5q-164 0 -261 61.5t-97 158.5v413h120v-389q0 -66 60.5 -101t177.5 -35q116 0 176.5 35t60.5 101v389h120v-413zM519 669h-61l-124 166h116z" />
    <glyph glyph-name="uacute" unicode="&#xfa;" horiz-adv-x="911" 
d="M813 202q0 -97 -97 -158.5t-260 -61.5q-164 0 -261 61.5t-97 158.5v413h120v-389q0 -66 60.5 -101t177.5 -35q116 0 176.5 35t60.5 101v389h120v-413zM580 835l-124 -166h-61l69 166h116z" />
    <glyph glyph-name="ucircumflex" unicode="&#xfb;" horiz-adv-x="911" 
d="M813 202q0 -97 -97 -158.5t-260 -61.5q-164 0 -261 61.5t-97 158.5v413h120v-389q0 -66 60.5 -101t177.5 -35q116 0 176.5 35t60.5 101v389h120v-413zM649 668h-102l-91 99l-91 -99h-102l153 166h80z" />
    <glyph glyph-name="udieresis" unicode="&#xfc;" horiz-adv-x="911" 
d="M813 202q0 -97 -97 -158.5t-260 -61.5q-164 0 -261 61.5t-97 158.5v413h120v-389q0 -66 60.5 -101t177.5 -35q116 0 176.5 35t60.5 101v389h120v-413zM621 746q0 -25 -19 -43.5t-45 -18.5t-44.5 18t-18.5 44t18.5 45t44.5 19q25 0 44.5 -19t19.5 -45zM420 746
q0 -25 -19 -43.5t-45 -18.5t-44.5 18t-18.5 44t18.5 45t44.5 19t45 -19t19 -45z" />
    <glyph glyph-name="yacute" unicode="&#xfd;" horiz-adv-x="828" 
d="M823 615l-350 -373v-242h-120v242l-348 373h146l263 -280l263 280h146zM538 835l-124 -166h-61l69 166h116z" />
    <glyph glyph-name="thorn" unicode="&#xfe;" horiz-adv-x="836" 
d="M602 552q98 0 156 -53t58 -142q0 -93 -60.5 -143.5t-173.5 -50.5h-357v-163h-120v615h120v-63h377zM584 272q109 0 109 83q0 46 -28 67t-88 21h-352v-171h359z" />
    <glyph glyph-name="ydieresis" unicode="&#xff;" horiz-adv-x="828" 
d="M823 615l-350 -373v-242h-120v242l-348 373h146l263 -280l263 280h146zM579 746q0 -25 -19 -43.5t-45 -18.5t-44.5 18t-18.5 44t18.5 45t44.5 19q25 0 44.5 -19t19.5 -45zM378 746q0 -25 -19 -43.5t-45 -18.5t-44.5 18t-18.5 44t18.5 45t44.5 19t45 -19t19 -45z" />
    <glyph glyph-name="dotlessi" unicode="&#x131;" horiz-adv-x="330" 
d="M225 0h-120v615h120v-615z" />
    <glyph glyph-name="Lslash" unicode="&#x141;" horiz-adv-x="820" 
d="M800 0h-679v207l-49 -31v130l49 31v387h120v-313l243 151v-129l-243 -152v-172h559v-109z" />
    <glyph glyph-name="lslash" unicode="&#x142;" horiz-adv-x="725" 
d="M700 0h-595v164l-42 -26v128l42 26v323h120v-251l207 125v-128l-207 -125v-127h475v-109z" />
    <glyph glyph-name="OE" unicode="&#x152;" horiz-adv-x="1533" 
d="M1473 0h-935q-188 0 -310 87q-145 103 -145 274q0 167 145 273q124 90 307 90h910v-109h-610v-185h424v-109h-424v-212h638v-109zM715 170v393q0 47 -96 51h-84q-148 0 -237.5 -70.5t-89.5 -182.5q0 -116 87.5 -184t240.5 -68h89q90 0 90 61z" />
    <glyph glyph-name="oe" unicode="&#x153;" horiz-adv-x="1318" 
d="M1268 0h-805q-160 0 -267 73q-128 88 -128 234q0 145 127 233q107 75 265 75h785v-109h-519v-132h361v-109h-361v-156h542v-109zM606 137v334q0 35 -63 35h-83q-121 0 -194 -55.5t-73 -143.5q0 -92 70.5 -145t196.5 -53h76q70 0 70 28z" />
    <glyph glyph-name="Scaron" unicode="&#x160;" horiz-adv-x="939" 
d="M755 554q-161 82 -328 82q-111 0 -170 -26t-59 -72q0 -47 63 -70q35 -12 86.5 -17t127 -9.5t131.5 -11.5q136 -17 201 -66.5t65 -139.5q0 -115 -102 -178t-293 -63q-277 0 -431 122l66 87q170 -104 366 -104q127 0 195.5 34t68.5 94q0 64 -72 87q-49 16 -220 27l-44 3
q-179 12 -257 51t-78 138q0 102 95.5 161t269.5 59q234 0 392 -107zM648 945l-153 -166h-80l-153 166h102l91 -99l91 99h102z" />
    <glyph glyph-name="scaron" unicode="&#x161;" horiz-adv-x="814" 
d="M662 463q-120 63 -261 63q-205 0 -205 -73q0 -14 6 -24t20.5 -17t30 -11t43.5 -7t52 -5t63.5 -5t71.5 -6q151 -15 218.5 -56t67.5 -129q0 -99 -88.5 -153t-256.5 -54q-237 0 -379 108l65 85q127 -89 312 -89q104 0 161 26.5t57 70.5q0 50 -70 69q-30 8 -71.5 11.5
t-102.5 6t-104 6.5q-114 11 -168 49t-54 111q0 88 86.5 139.5t242.5 51.5q208 0 337 -90zM601 834l-153 -166h-80l-153 166h102l91 -99l91 99h102z" />
    <glyph glyph-name="Ydieresis" unicode="&#x178;" horiz-adv-x="922" 
d="M917 724l-396 -438v-286h-120v286l-396 438h149l308 -338l306 338h149zM626 857q0 -25 -19 -43.5t-45 -18.5t-44.5 18t-18.5 44t18.5 45t44.5 19t45 -19.5t19 -44.5zM425 857q0 -25 -19 -43.5t-45 -18.5t-44.5 18t-18.5 44t18.5 45t44.5 19t45 -19t19 -45z" />
    <glyph glyph-name="Zcaron" unicode="&#x17d;" horiz-adv-x="887" 
d="M837 0h-787v109l598 506h-589v109h751v-109l-598 -506h625v-109zM638 945l-153 -166h-80l-153 166h102l91 -99l91 99h102z" />
    <glyph glyph-name="zcaron" unicode="&#x17e;" horiz-adv-x="767" 
d="M727 0h-687v109l492 397h-485v109h657v-109l-493 -397h516v-109zM578 834l-153 -166h-80l-153 166h102l91 -99l91 99h102z" />
    <glyph glyph-name="florin" unicode="&#x192;" horiz-adv-x="553" 
d="M537 710l-38 -94q-43 20 -67 20q-50 0 -61 -52l-32 -159h105v-96h-124l-60 -322q-10 -54 -54 -90t-103 -36q-45 0 -104 21l27 96q38 -20 69 -20q37 0 43 31l60 320h-93v96h111q25 166 71 239t136 73q47 0 114 -27z" />
    <glyph glyph-name="circumflex" unicode="&#x2c6;" 
d="M443 668h-102l-91 99l-91 -99h-102l153 166h80z" />
    <glyph glyph-name="caron" unicode="&#x2c7;" 
d="M444 834l-153 -166h-80l-153 166h102l91 -99l91 99h102z" />
    <glyph glyph-name="uni02C9" unicode="&#x2c9;" 
d="M421 701h-343v74h343v-74z" />
    <glyph glyph-name="breve" unicode="&#x2d8;" 
d="M398 797q-15 -67 -50.5 -98t-96.5 -31t-96.5 31.5t-51.5 97.5h83q12 -57 65 -57t65 57h82z" />
    <glyph glyph-name="dotaccent" unicode="&#x2d9;" 
d="M314 746q0 -25 -19 -43.5t-45 -18.5t-44.5 18t-18.5 44t18.5 45t44.5 19t45 -19t19 -45z" />
    <glyph glyph-name="ring" unicode="&#x2da;" 
d="M363 760q0 -39 -32.5 -65.5t-80.5 -26.5t-80 26.5t-32 65.5t32 66t80 27t80.5 -27t32.5 -66zM303 760q0 17 -15.5 29.5t-37.5 12.5q-23 0 -38 -12.5t-15 -29.5t15 -29t38 -12q22 0 37.5 12t15.5 29z" />
    <glyph glyph-name="ogonek" unicode="&#x2db;" 
d="M350 -189q-48 -16 -95 -16q-60 0 -91.5 24.5t-31.5 70.5q0 77 109 119h96q-111 -54 -111 -117q0 -26 15 -40.5t40 -14.5q17 0 55 12z" />
    <glyph glyph-name="tilde" unicode="&#x2dc;" 
d="M420 769q-45 -84 -103 -84q-30 0 -74 18.5t-55 18.5q-25 0 -53 -48l-59 46q35 41 59 59.5t49 18.5t68 -19t60 -19q16 0 27.5 10.5t26.5 35.5z" />
    <glyph glyph-name="hungarumlaut" unicode="&#x2dd;" 
d="M464 834l-107 -166h-61l52 166h116zM286 834l-107 -166h-61l52 166h116z" />
    <glyph glyph-name="uni03A9" unicode="&#x3a9;" horiz-adv-x="961" 
d="M915 0h-343v102q42 25 73 49t65 59.5t52.5 80.5t18.5 96q0 85 -79 150.5t-216 65.5q-124 0 -213 -59.5t-89 -160.5q0 -41 14.5 -80t34.5 -66t51.5 -55.5t53.5 -44t53 -35.5v-102h-345v102h226q-94 41 -158.5 118t-64.5 185q0 136 119 221.5t312 85.5q110 0 195.5 -26
t136.5 -69.5t77 -96.5t26 -112q0 -101 -67 -183.5t-169 -122.5h236v-102z" />
    <glyph glyph-name="uni03BC" unicode="&#x3bc;" horiz-adv-x="618" 
d="M207 523l-69 -293q-8 -29 -8 -65q0 -49 28 -75t80 -26q73 0 113 46.5t65 150.5l61 262h96l-83 -357q-13 -54 -13 -65q0 -18 9 -25.5t30 -7.5q11 0 18 1l-17 -70q-26 -5 -58 -5q-34 0 -52 14.5t-29 48.5q-46 -64 -145 -64q-84 0 -137 57l-60 -259h-97l171 732h97z" />
    <glyph glyph-name="pi" unicode="&#x3c0;" horiz-adv-x="1059" 
d="M940 93l23 -83q-40 -19 -105 -19q-80 0 -120.5 41.5t-40.5 118.5v257h-303v-269q0 -86 -25 -139h-130q28 54 28 144v264q-78 -2 -137 -29q0 2 -17 41t-18 41q26 15 77.5 27t109.5 12h680v-92h-139v-241q0 -84 72 -84q21 0 45 10z" />
    <glyph glyph-name="endash" unicode="&#x2013;" horiz-adv-x="845" 
d="M777 265h-717v109h717v-109z" />
    <glyph glyph-name="emdash" unicode="&#x2014;" horiz-adv-x="975" 
d="M915 265h-855v109h855v-109z" />
    <glyph glyph-name="quoteleft" unicode="&#x2018;" horiz-adv-x="275" 
d="M215 478h-155v137q0 109 125 109h23v-59q-75 -1 -75 -42v-36h82v-109z" />
    <glyph glyph-name="quoteright" unicode="&#x2019;" horiz-adv-x="275" 
d="M215 587q0 -109 -125 -109h-23v59q75 0 75 42v36h-82v109h155v-137z" />
    <glyph glyph-name="quotesinglbase" unicode="&#x201a;" horiz-adv-x="365" 
d="M260 -28q0 -109 -125 -109h-23v59q75 2 75 42v36h-82v109h155v-137z" />
    <glyph glyph-name="quotedblleft" unicode="&#x201c;" horiz-adv-x="513" 
d="M453 478h-155v137q0 109 125 109h23v-59q-75 -1 -75 -42v-36h82v-109zM215 478h-155v137q0 109 125 109h23v-59q-75 -1 -75 -42v-36h82v-109z" />
    <glyph glyph-name="quotedblright" unicode="&#x201d;" horiz-adv-x="513" 
d="M453 587q0 -109 -125 -109h-23v59q75 0 75 42v36h-82v109h155v-137zM215 587q0 -109 -125 -109h-23v59q75 0 75 42v36h-82v109h155v-137z" />
    <glyph glyph-name="quotedblbase" unicode="&#x201e;" horiz-adv-x="593" 
d="M488 -28q0 -109 -125 -109h-23v59q75 2 75 42v36h-82v109h155v-137zM260 -28q0 -109 -125 -109h-23v59q75 2 75 42v36h-82v109h155v-137z" />
    <glyph glyph-name="dagger" unicode="&#x2020;" horiz-adv-x="450" 
d="M412 476h-147l24 -548h-130l21 548h-151v101h146l-18 216h132l-20 -216h143v-101z" />
    <glyph glyph-name="daggerdbl" unicode="&#x2021;" horiz-adv-x="477" 
d="M422 140h-133l10 -212h-130l8 212h-138v101h141l10 235h-151v101h146l-18 216h132l-20 -216h143v-101h-147l10 -235h137v-101z" />
    <glyph glyph-name="bullet" unicode="&#x2022;" horiz-adv-x="532" 
d="M448 355q0 -71 -55 -123q-51 -49 -126 -49t-127 49q-55 52 -55 123t55 123q51 49 127 49q75 0 126 -49q55 -52 55 -123z" />
    <glyph glyph-name="ellipsis" unicode="&#x2026;" horiz-adv-x="1000" 
d="M911 0h-155v109h155v-109zM577 0h-155v109h155v-109zM244 0h-155v109h155v-109z" />
    <glyph glyph-name="perthousand" unicode="&#x2030;" horiz-adv-x="1573" 
d="M1512 183q0 -82 -60 -140q-59 -57 -141 -57q-83 0 -142 57q-60 58 -60 140t60 140q59 57 142 57q82 0 141 -57q60 -58 60 -140zM1039 183q0 -82 -60 -140q-59 -57 -142 -57t-142 57q-60 58 -60 140t60 140q59 57 142 57t142 -57q60 -58 60 -140zM934 724l-646 -734h-137
l647 734h136zM450 542q0 -81 -60 -139q-59 -57 -141 -57q-84 0 -142 56q-60 58 -60 140t60 140q59 57 142 57q82 0 141 -57q60 -58 60 -140zM1405 183q0 41 -27 69t-67 28q-41 0 -68.5 -28t-27.5 -69t28 -69t68 -28t67 28t27 69zM932 183q0 41 -27.5 69t-67.5 28
q-41 0 -68.5 -28t-27.5 -69t28 -69t68 -28t67.5 28t27.5 69zM343 542q0 41 -27 69t-67 28q-41 0 -68.5 -28t-27.5 -69t28 -69t68 -28t67 28t27 69z" />
    <glyph glyph-name="guilsinglleft" unicode="&#x2039;" horiz-adv-x="460" 
d="M387 484l-161 -163l159 -162h-147l-165 162l169 163h145z" />
    <glyph glyph-name="guilsinglright" unicode="&#x203a;" horiz-adv-x="460" 
d="M387 321l-165 -162h-147l159 162l-161 163h145z" />
    <glyph glyph-name="fraction" unicode="&#x2044;" horiz-adv-x="294" 
d="M539 724l-647 -734h-137l648 734h136z" />
    <glyph glyph-name="Euro" unicode="&#x20ac;" horiz-adv-x="932" 
d="M602 243h-327q33 -67 102 -105.5t165 -38.5q170 0 266 113l91 -55q-68 -88 -155.5 -127.5t-207.5 -39.5q-140 0 -246.5 67t-143.5 186h-112v91h95q-1 9 -1 27q0 29 2 43h-96v91h118q43 110 148 173.5t236 63.5q239 0 367 -182l-96 -38q-97 113 -271 113q-81 0 -147 -35
t-103 -95h316v-91h-350q-3 -21 -3 -43q0 -18 1 -27h352v-91z" />
    <glyph glyph-name="litre" unicode="&#x2113;" horiz-adv-x="679" 
d="M581 71q-35 -33 -89.5 -59.5t-119.5 -26.5q-79 0 -121 45q-40 43 -40 120v68l-74 -64l-39 65l113 97v182q0 45 9 84.5t28.5 73t55 53t83.5 19.5q62 0 94.5 -36t32.5 -87q0 -120 -139 -249l-50 -52v-132q0 -100 86 -100q60 0 122 58zM424 585q0 55 -40 55q-31 0 -45 -33.5
t-14 -75.5v-131l38 44q61 78 61 141z" />
    <glyph glyph-name="trademark" unicode="&#x2122;" horiz-adv-x="409" 
d="M376 548h-39v125l-46 -125h-18l-47 125v-125h-40v166h58l39 -100l36 100h57v-166zM153 681h-51v-133h-41v133h-51v33h143v-33z" />
    <glyph glyph-name="Omega" unicode="&#x2126;" horiz-adv-x="961" 
d="M915 0h-343v102q42 25 73 49t65 59.5t52.5 80.5t18.5 96q0 85 -79 150.5t-216 65.5q-124 0 -213 -59.5t-89 -160.5q0 -41 14.5 -80t34.5 -66t51.5 -55.5t53.5 -44t53 -35.5v-102h-345v102h226q-94 41 -158.5 118t-64.5 185q0 136 119 221.5t312 85.5q110 0 195.5 -26
t136.5 -69.5t77 -96.5t26 -112q0 -101 -67 -183.5t-169 -122.5h236v-102z" />
    <glyph glyph-name="estimated" unicode="&#x212e;" horiz-adv-x="809" 
d="M789 393h-603v-273q93 -88 213 -88q49 0 91 11t69.5 26t55.5 42t43.5 46.5t38.5 53.5q4 -2 18.5 -11.5l22.5 -14.5q-38 -61 -78 -101t-107 -68t-154 -28q-110 0 -198 56.5t-135.5 149t-47.5 201.5q0 112 46 203.5t136 147t208 55.5q172 0 277.5 -119.5t103.5 -288.5z
M622 437v235q-39 34 -98 59.5t-116 25.5q-138 0 -222 -86v-234h436z" />
    <glyph glyph-name="partialdiff" unicode="&#x2202;" horiz-adv-x="824" 
d="M727 449q0 -100 -31 -180q-102 -282 -356 -282q-108 0 -176 62.5t-68 158.5q0 57 19 105t49.5 80.5t70 55t80.5 33t81 10.5q145 0 204 -98h3q2 10 2 38q0 86 -46.5 145.5t-139.5 59.5q-77 0 -142 -43l-32 81q28 21 85.5 38.5t122.5 17.5q91 0 155 -41.5t91.5 -103.5
t27.5 -137zM580 303q-11 42 -49 72.5t-99 30.5q-89 0 -149.5 -55.5t-60.5 -137.5q0 -57 37 -93t97 -36q78 0 137 58.5t87 160.5z" />
    <glyph glyph-name="Delta" unicode="&#x2206;" horiz-adv-x="921" 
d="M865 0h-809v54l335 646h142l332 -646v-54zM711 104l-230 440q-7 13 -19 62h-5q-15 -46 -23 -59l-232 -443h509z" />
    <glyph glyph-name="product" unicode="&#x220f;" horiz-adv-x="1041" 
d="M931 -230h-128v820h-566v-820h-128v930h822v-930z" />
    <glyph glyph-name="summation" unicode="&#x2211;" horiz-adv-x="896" 
d="M893 -230h-890v66l478 403l-453 389v72h835v-102h-621l404 -356l-426 -370h673v-102z" />
    <glyph glyph-name="minus" unicode="&#x2212;" horiz-adv-x="932" 
d="M763 256h-594v80h594v-80z" />
    <glyph glyph-name="uni2215" unicode="&#x2215;" horiz-adv-x="294" 
d="M539 724l-647 -734h-137l648 734h136z" />
    <glyph glyph-name="uni2219" unicode="&#x2219;" horiz-adv-x="465" 
d="M310 265h-155v109h155v-109z" />
    <glyph glyph-name="radical" unicode="&#x221a;" horiz-adv-x="847" 
d="M785 729l-359 -741h-57l-207 343l-77 -44l-24 61l145 74l191 -319l298 626h90z" />
    <glyph glyph-name="infinity" unicode="&#x221e;" horiz-adv-x="1161" 
d="M1074 297q0 -90 -59 -147t-167 -57q-78 0 -146 38.5t-117 105.5h-2q-46 -62 -118.5 -103t-148.5 -41q-117 0 -173 57t-56 138q0 90 57 147.5t167 57.5q160 0 271 -146h2q47 61 114 103.5t145 42.5q108 0 169.5 -52t61.5 -144zM978 290q0 51 -32.5 84.5t-102.5 33.5
q-116 0 -209 -116q91 -114 212 -114q67 0 99.5 32t32.5 80zM528 292q-39 54 -97.5 85t-116.5 31q-61 0 -96 -32t-35 -85q0 -52 38 -83t97 -31q56 0 111.5 30t98.5 85z" />
    <glyph glyph-name="integral" unicode="&#x222b;" horiz-adv-x="671" 
d="M578 636q-30 18 -76 18q-48 0 -75.5 -27t-27.5 -74v-593q0 -111 -59 -159.5t-152 -48.5q-74 0 -123 23l29 90q34 -17 76 -17q49 0 76 26t27 76v591q0 108 53.5 158.5t149.5 50.5q78 0 130 -24q-18 -60 -28 -90z" />
    <glyph glyph-name="approxequal" unicode="&#x2248;" horiz-adv-x="932" 
d="M786 425q-41 -46 -85.5 -70.5t-106.5 -24.5q-65 0 -139 37q-76 38 -123 38q-66 0 -130 -75l-57 60q42 47 83.5 71t102.5 24q64 0 141 -36q74 -39 125 -39q64 0 131 75zM786 201q-41 -46 -85.5 -70.5t-106.5 -24.5q-65 0 -139 37q-76 38 -123 38q-66 0 -130 -75l-57 60
q42 47 83.5 71t102.5 24q64 0 141 -36q74 -39 125 -39q64 0 131 75z" />
    <glyph glyph-name="notequal" unicode="&#x2260;" horiz-adv-x="932" 
d="M763 144h-356l-81 -138h-89l81 138h-149v80h203l89 146h-292v80h345l87 145h89l-88 -145h161v-80h-214l-88 -146h302v-80z" />
    <glyph glyph-name="lessequal" unicode="&#x2264;" horiz-adv-x="932" 
d="M763 0h-594v80h594v-80zM763 137l-594 222v61l594 222v-87l-450 -163v-3l450 -166v-86z" />
    <glyph glyph-name="greaterequal" unicode="&#x2265;" horiz-adv-x="932" 
d="M763 0h-594v80h594v-80zM763 358l-594 -221v86l450 164v2l-450 166v87l594 -223v-61z" />
    <glyph glyph-name="lozenge" unicode="&#x25ca;" horiz-adv-x="835" 
d="M769 350l-321 -350h-61l-321 349l321 351h61zM661 349l-243 271l-246 -271l246 -271z" />
    <glyph glyph-name="A.sc" unicode="&#xe000;" horiz-adv-x="845" 
d="M832 0h-132l-71 132h-413l-71 -132h-132l335 615h149zM569 241l-146 272l-147 -272h293z" />
    <glyph glyph-name="AE.sc" unicode="&#xe001;" horiz-adv-x="1217" 
d="M1167 0h-662v132h-274l-98 -132h-120l447 615h684v-109h-519v-132h361v-109h-361v-156h542v-109zM505 241v268l-195 -268h195z" />
    <glyph glyph-name="Aacute.sc" unicode="&#xe002;" horiz-adv-x="845" 
d="M832 0h-132l-71 132h-413l-71 -132h-132l335 615h149zM569 241l-146 272l-147 -272h293zM547 835l-124 -166h-61l69 166h116z" />
    <glyph glyph-name="Acircumflex.sc" unicode="&#xe003;" horiz-adv-x="845" 
d="M832 0h-132l-71 132h-413l-71 -132h-132l335 615h149zM569 241l-146 272l-147 -272h293zM616 668h-102l-91 99l-91 -99h-102l153 166h80z" />
    <glyph glyph-name="Adieresis.sc" unicode="&#xe004;" horiz-adv-x="845" 
d="M832 0h-132l-71 132h-413l-71 -132h-132l335 615h149zM569 241l-146 272l-147 -272h293zM588 746q0 -25 -19 -43.5t-45 -18.5t-44.5 18t-18.5 44t18.5 45t44.5 19t45 -19t19 -45zM387 746q0 -25 -19 -43.5t-45 -18.5t-44.5 18t-18.5 44t18.5 45t44.5 19t45 -19t19 -45z
" />
    <glyph glyph-name="Agrave.sc" unicode="&#xe005;" horiz-adv-x="845" 
d="M832 0h-132l-71 132h-413l-71 -132h-132l335 615h149zM569 241l-146 272l-147 -272h293zM486 669h-61l-124 166h116z" />
    <glyph glyph-name="Aring.sc" unicode="&#xe006;" horiz-adv-x="845" 
d="M536 763q0 -39 -32.5 -65.5t-80.5 -26.5t-80 26.5t-32 65.5t32 66t80 27t80.5 -27t32.5 -66zM832 0h-132l-71 132h-413l-71 -132h-132l335 615h149zM476 763q0 17 -15 29.5t-38 12.5t-38 -12.5t-15 -29.5t15 -29t38 -12q22 0 37.5 12t15.5 29zM569 241l-146 272
l-147 -272h293z" />
    <glyph glyph-name="Atilde.sc" unicode="&#xe007;" horiz-adv-x="845" 
d="M832 0h-132l-71 132h-413l-71 -132h-132l335 615h149zM569 241l-146 272l-147 -272h293zM593 769q-45 -84 -103 -84q-30 0 -74 18.5t-55 18.5q-25 0 -53 -48l-59 46q35 41 59 59.5t49 18.5t68 -19t60 -19q16 0 27.5 10.5t26.5 35.5z" />
    <glyph glyph-name="B.sc" unicode="&#xe008;" horiz-adv-x="916" 
d="M748 318q98 -50 98 -152q0 -81 -61.5 -123.5t-179.5 -42.5h-500v615h506q98 0 154 -47t56 -124q0 -78 -73 -126zM613 365q42 0 66.5 19.5t24.5 52.5q0 32 -23 50.5t-64 18.5h-392v-141h388zM605 109q57 0 88.5 19t31.5 51q0 36 -28.5 56.5t-81.5 20.5h-390v-147h380z" />
    <glyph glyph-name="C.sc" unicode="&#xe009;" horiz-adv-x="904" 
d="M841 467l-110 -38q-96 98 -251 98q-131 0 -209 -60.5t-78 -156.5q0 -99 78 -159t211 -60q154 0 251 101l103 -55q-72 -80 -157 -116.5t-200 -36.5q-184 0 -297.5 91.5t-113.5 234.5q0 148 129 243q113 82 275 82q229 0 369 -168z" />
    <glyph glyph-name="Ccedilla.sc" unicode="&#xe00a;" horiz-adv-x="904" 
d="M841 467l-110 -38q-98 98 -259 98q-124 0 -201.5 -61t-77.5 -156q0 -97 76.5 -158t202.5 -61q84 0 146 23.5t115 77.5l103 -55q-133 -152 -347 -153l-19 -30q80 -8 80 -76q0 -37 -29.5 -60.5t-79.5 -23.5q-48 0 -96 19l19 36q32 -12 52 -12q22 0 36.5 11.5t14.5 26.5
q0 11 -7 17.5t-18 6.5q-15 0 -27 -17l-31 14l48 89q-173 18 -268.5 105t-95.5 220q0 148 129 243q113 82 275 82q226 0 369 -168z" />
    <glyph glyph-name="D.sc" unicode="&#xe00b;" horiz-adv-x="920" 
d="M503 615q162 0 260 -85t98 -218q0 -68 -24.5 -121t-78.5 -111q-29 -32 -95 -56t-140 -24h-418v615h398zM531 109q88 0 144.5 55t56.5 140q0 91 -60 146.5t-160 55.5h-287v-397h306z" />
    <glyph glyph-name="Eth.sc" unicode="&#xe00c;" horiz-adv-x="920" 
d="M502 615q162 0 260 -85t98 -218q0 -134 -104 -232q-31 -31 -98.5 -55.5t-135.5 -24.5h-418v258h-50v109h50v248h398zM530 109q88 0 144.5 55t56.5 140q0 91 -60 146.5t-160 55.5h-287v-139h287v-109h-287v-149h306z" />
    <glyph glyph-name="E.sc" unicode="&#xe00d;" horiz-adv-x="817" 
d="M767 0h-662v615h639v-109h-519v-132h361v-109h-361v-156h542v-109z" />
    <glyph glyph-name="Eacute.sc" unicode="&#xe00e;" horiz-adv-x="817" 
d="M767 0h-662v615h639v-109h-519v-132h361v-109h-361v-156h542v-109zM539 835l-124 -166h-61l69 166h116z" />
    <glyph glyph-name="Ecircumflex.sc" unicode="&#xe00f;" horiz-adv-x="817" 
d="M767 0h-662v615h639v-109h-519v-132h361v-109h-361v-156h542v-109zM608 668h-102l-91 99l-91 -99h-102l153 166h80z" />
    <glyph glyph-name="Edieresis.sc" unicode="&#xe010;" horiz-adv-x="817" 
d="M767 0h-662v615h639v-109h-519v-132h361v-109h-361v-156h542v-109zM580 746q0 -25 -19 -43.5t-45 -18.5t-44.5 18t-18.5 44t18.5 45t44.5 19t45 -19t19 -45zM379 746q0 -25 -19 -43.5t-45 -18.5t-44.5 18t-18.5 44t18.5 45t44.5 19t45 -19t19 -45z" />
    <glyph glyph-name="Egrave.sc" unicode="&#xe011;" horiz-adv-x="817" 
d="M767 0h-662v615h639v-109h-519v-132h361v-109h-361v-156h542v-109zM478 669h-61l-124 166h116z" />
    <glyph glyph-name="F.sc" unicode="&#xe012;" horiz-adv-x="769" 
d="M744 506h-519v-132h361v-109h-361v-265h-120v615h639v-109z" />
    <glyph glyph-name="G.sc" unicode="&#xe013;" horiz-adv-x="941" 
d="M873 337v-19q0 -150 -109.5 -243t-291.5 -93q-163 0 -275 81q-129 95 -129 246q0 149 129 244q113 83 282 83q204 0 338 -143l-113 -56q-94 90 -232 90q-122 0 -201 -62t-79 -156q0 -97 77 -158t203 -61q189 0 251 138h-277v109h427z" />
    <glyph glyph-name="H.sc" unicode="&#xe014;" horiz-adv-x="925" 
d="M820 0h-120v265h-475v-265h-120v615h120v-241h475v241h120v-615z" />
    <glyph glyph-name="I.sc" unicode="&#xe015;" horiz-adv-x="330" 
d="M225 0h-120v615h120v-615z" />
    <glyph glyph-name="Iacute.sc" unicode="&#xe016;" horiz-adv-x="330" 
d="M225 0h-120v615h120v-615zM289 835l-124 -166h-61l69 166h116z" />
    <glyph glyph-name="Icircumflex.sc" unicode="&#xe017;" horiz-adv-x="330" 
d="M225 0h-120v615h120v-615zM358 668h-102l-91 99l-91 -99h-102l153 166h80z" />
    <glyph glyph-name="Idieresis.sc" unicode="&#xe018;" horiz-adv-x="330" 
d="M225 0h-120v615h120v-615zM330 746q0 -25 -19 -43.5t-45 -18.5t-44.5 18t-18.5 44t18.5 45t44.5 19t45 -19t19 -45zM129 746q0 -25 -19 -43.5t-45 -18.5t-44.5 18t-18.5 44t18.5 45t44.5 19t45 -19t19 -45z" />
    <glyph glyph-name="Igrave.sc" unicode="&#xe019;" horiz-adv-x="330" 
d="M225 0h-120v615h120v-615zM228 669h-61l-124 166h116z" />
    <glyph glyph-name="J.sc" unicode="&#xe01a;" horiz-adv-x="700" 
d="M595 200q0 -106 -73 -162t-214 -56q-260 0 -274 224h121q7 -64 43.5 -90.5t114.5 -26.5q86 0 124 25t38 86v415h120v-415z" />
    <glyph glyph-name="K.sc" unicode="&#xe01b;" horiz-adv-x="849" 
d="M848 0h-155l-293 312l-175 -126v-186h-120v615h120v-301l419 301h177l-328 -236z" />
    <glyph glyph-name="L.sc" unicode="&#xe01c;" horiz-adv-x="725" 
d="M700 0h-595v615h120v-506h475v-109z" />
    <glyph glyph-name="Lslash.sc" unicode="&#xe01d;" horiz-adv-x="725" 
d="M700 0h-595v164l-42 -26v128l42 26v323h120v-251l207 125v-128l-207 -125v-127h475v-109z" />
    <glyph glyph-name="M.sc" unicode="&#xe01e;" horiz-adv-x="1073" 
d="M968 0h-120v510l-3 -4l-309 -419l-308 423l-3 -4v-506h-120v615h180l251 -348l252 348h180v-615z" />
    <glyph glyph-name="N.sc" unicode="&#xe01f;" horiz-adv-x="927" 
d="M822 0h-179l-418 513v-513h-120v615h179l418 -513v513h120v-615z" />
    <glyph glyph-name="Ntilde.sc" unicode="&#xe020;" horiz-adv-x="927" 
d="M822 0h-179l-418 513v-513h-120v615h179l418 -513v513h120v-615zM634 769q-45 -84 -103 -84q-30 0 -74 18.5t-55 18.5q-24 0 -53 -48l-59 46q35 41 59 59.5t49 18.5t68 -19t60 -19q16 0 27.5 10.5t26.5 35.5z" />
    <glyph glyph-name="O.sc" unicode="&#xe021;" horiz-adv-x="945" 
d="M877 309q0 -151 -129 -246q-110 -81 -275 -81q-164 0 -276 81q-129 95 -129 246q0 150 130 244q114 83 275 83q160 0 274 -83q130 -95 130 -244zM752 309q0 95 -78 156.5t-201 61.5q-124 0 -202.5 -62t-78.5 -156q0 -98 77 -158.5t204 -60.5q126 0 202.5 60.5t76.5 158.5
z" />
    <glyph glyph-name="OE.sc" unicode="&#xe022;" horiz-adv-x="1318" 
d="M1268 0h-805q-160 0 -267 73q-128 88 -128 234q0 145 127 233q107 75 265 75h785v-109h-519v-132h361v-109h-361v-156h542v-109zM606 137v334q0 35 -63 35h-83q-121 0 -194 -55.5t-73 -143.5q0 -92 70.5 -145t196.5 -53h76q70 0 70 28z" />
    <glyph glyph-name="Oacute.sc" unicode="&#xe023;" horiz-adv-x="945" 
d="M877 309q0 -151 -129 -246q-110 -81 -275 -81q-164 0 -276 81q-129 95 -129 246q0 150 130 244q114 83 275 83q160 0 274 -83q130 -95 130 -244zM752 309q0 95 -78 156.5t-201 61.5q-124 0 -202.5 -62t-78.5 -156q0 -98 77 -158.5t204 -60.5q126 0 202.5 60.5t76.5 158.5
zM597 835l-124 -166h-61l69 166h116z" />
    <glyph glyph-name="Ocircumflex.sc" unicode="&#xe024;" horiz-adv-x="945" 
d="M877 309q0 -151 -129 -246q-110 -81 -275 -81q-164 0 -276 81q-129 95 -129 246q0 150 130 244q114 83 275 83q160 0 274 -83q130 -95 130 -244zM752 309q0 95 -78 156.5t-201 61.5q-124 0 -202.5 -62t-78.5 -156q0 -98 77 -158.5t204 -60.5q126 0 202.5 60.5t76.5 158.5
zM666 668h-102l-91 99l-91 -99h-102l153 166h80z" />
    <glyph glyph-name="Odieresis.sc" unicode="&#xe025;" horiz-adv-x="945" 
d="M877 309q0 -151 -129 -246q-110 -81 -275 -81q-164 0 -276 81q-129 95 -129 246q0 150 130 244q114 83 275 83q160 0 274 -83q130 -95 130 -244zM752 309q0 95 -78 156.5t-201 61.5q-124 0 -202.5 -62t-78.5 -156q0 -98 77 -158.5t204 -60.5q126 0 202.5 60.5t76.5 158.5
zM638 746q0 -25 -19 -43.5t-45 -18.5t-44.5 18t-18.5 44t18.5 45t44.5 19t45 -19t19 -45zM437 746q0 -25 -19 -43.5t-45 -18.5t-44.5 18t-18.5 44t18.5 45t44.5 19t45 -19t19 -45z" />
    <glyph glyph-name="Ograve.sc" unicode="&#xe026;" horiz-adv-x="945" 
d="M877 309q0 -151 -129 -246q-110 -81 -275 -81q-164 0 -276 81q-129 95 -129 246q0 150 130 244q114 83 275 83q160 0 274 -83q130 -95 130 -244zM752 309q0 95 -78 156.5t-201 61.5q-124 0 -202.5 -62t-78.5 -156q0 -98 77 -158.5t204 -60.5q126 0 202.5 60.5t76.5 158.5
zM536 669h-61l-124 166h116z" />
    <glyph glyph-name="Oslash.sc" unicode="&#xe027;" horiz-adv-x="945" 
d="M727 566q150 -95 150 -257q0 -151 -129 -246q-110 -81 -275 -81q-99 0 -198 39l-55 -66h-92l83 99q-143 95 -143 255q0 150 130 244q114 83 275 83q93 0 191 -37l47 55h91zM349 110q57 -20 124 -20q126 0 202.5 60.5t76.5 158.5q0 103 -98 170zM589 509q-60 18 -116 18
q-124 0 -202.5 -62t-78.5 -156q0 -102 91 -168z" />
    <glyph glyph-name="Otilde.sc" unicode="&#xe028;" horiz-adv-x="945" 
d="M877 309q0 -151 -129 -246q-110 -81 -275 -81q-164 0 -276 81q-129 95 -129 246q0 150 130 244q114 83 275 83q160 0 274 -83q130 -95 130 -244zM752 309q0 95 -78 156.5t-201 61.5q-124 0 -202.5 -62t-78.5 -156q0 -98 77 -158.5t204 -60.5q126 0 202.5 60.5t76.5 158.5
zM643 769q-45 -84 -103 -84q-30 0 -74 18.5t-55 18.5q-25 0 -53 -48l-59 46q35 41 59 59.5t49 18.5t68 -19t60 -19q16 0 27.5 10.5t26.5 35.5z" />
    <glyph glyph-name="P.sc" unicode="&#xe029;" horiz-adv-x="836" 
d="M602 615q98 0 156 -53t58 -142q0 -93 -60.5 -143.5t-173.5 -50.5h-357v-226h-120v615h497zM584 335q109 0 109 83q0 46 -28 67t-88 21h-352v-171h359z" />
    <glyph glyph-name="Thorn.sc" unicode="&#xe02a;" horiz-adv-x="836" 
d="M602 552q98 0 156 -53t58 -142q0 -93 -60.5 -143.5t-173.5 -50.5h-357v-163h-120v615h120v-63h377zM584 272q109 0 109 83q0 46 -28 67t-88 21h-352v-171h359z" />
    <glyph glyph-name="Q.sc" unicode="&#xe02b;" horiz-adv-x="945" 
d="M582 -7q-60 -11 -109 -11q-163 0 -276 82q-129 94 -129 245t129 245q112 83 276 83q163 0 275 -83q129 -95 129 -245q0 -185 -182 -278l77 -84l-114 -35zM614 116q138 59 138 193q0 95 -78 157t-201 62q-124 0 -202.5 -62t-78.5 -157q0 -98 76.5 -158.5t204.5 -60.5h18
l-68 72l115 34z" />
    <glyph glyph-name="R.sc" unicode="&#xe02c;" horiz-adv-x="894" 
d="M829 0h-138l-161 226h-305v-226h-120v615h497q98 0 156 -53t58 -142q0 -74 -39 -122.5t-114 -64.5zM584 335q109 0 109 83q0 46 -28 67t-88 21h-352v-171h359z" />
    <glyph glyph-name="S.sc" unicode="&#xe02d;" horiz-adv-x="814" 
d="M662 463q-120 63 -261 63q-205 0 -205 -73q0 -14 6 -24t20.5 -17t30 -11t43.5 -7t52 -5t63.5 -5t71.5 -6q151 -15 218.5 -56t67.5 -129q0 -99 -88.5 -153t-256.5 -54q-237 0 -379 108l65 85q127 -89 312 -89q104 0 161 26.5t57 70.5q0 50 -70 69q-30 8 -71.5 11.5
t-102.5 6t-104 6.5q-114 11 -168 49t-54 111q0 88 86.5 139.5t242.5 51.5q208 0 337 -90z" />
    <glyph glyph-name="Scaron.sc" unicode="&#xe02e;" horiz-adv-x="814" 
d="M662 463q-120 63 -261 63q-205 0 -205 -73q0 -14 6 -24t20.5 -17t30 -11t43.5 -7t52 -5t63.5 -5t71.5 -6q151 -15 218.5 -56t67.5 -129q0 -99 -88.5 -153t-256.5 -54q-237 0 -379 108l65 85q127 -89 312 -89q104 0 161 26.5t57 70.5q0 50 -70 69q-30 8 -71.5 11.5
t-102.5 6t-104 6.5q-114 11 -168 49t-54 111q0 88 86.5 139.5t242.5 51.5q208 0 337 -90zM601 834l-153 -166h-80l-153 166h102l91 -99l91 99h102z" />
    <glyph glyph-name="T.sc" unicode="&#xe02f;" horiz-adv-x="758" 
d="M733 506h-294v-506h-120v506h-294v109h708v-109z" />
    <glyph glyph-name="U.sc" unicode="&#xe030;" horiz-adv-x="911" 
d="M813 202q0 -97 -97 -158.5t-260 -61.5q-164 0 -261 61.5t-97 158.5v413h120v-389q0 -66 60.5 -101t177.5 -35q116 0 176.5 35t60.5 101v389h120v-413z" />
    <glyph glyph-name="Uacute.sc" unicode="&#xe031;" horiz-adv-x="911" 
d="M813 202q0 -97 -97 -158.5t-260 -61.5q-164 0 -261 61.5t-97 158.5v413h120v-389q0 -66 60.5 -101t177.5 -35q116 0 176.5 35t60.5 101v389h120v-413zM580 835l-124 -166h-61l69 166h116z" />
    <glyph glyph-name="Ucircumflex.sc" unicode="&#xe032;" horiz-adv-x="911" 
d="M813 202q0 -97 -97 -158.5t-260 -61.5q-164 0 -261 61.5t-97 158.5v413h120v-389q0 -66 60.5 -101t177.5 -35q116 0 176.5 35t60.5 101v389h120v-413zM649 668h-102l-91 99l-91 -99h-102l153 166h80z" />
    <glyph glyph-name="Udieresis.sc" unicode="&#xe033;" horiz-adv-x="911" 
d="M813 202q0 -97 -97 -158.5t-260 -61.5q-164 0 -261 61.5t-97 158.5v413h120v-389q0 -66 60.5 -101t177.5 -35q116 0 176.5 35t60.5 101v389h120v-413zM621 746q0 -25 -19 -43.5t-45 -18.5t-44.5 18t-18.5 44t18.5 45t44.5 19q25 0 44.5 -19t19.5 -45zM420 746
q0 -25 -19 -43.5t-45 -18.5t-44.5 18t-18.5 44t18.5 45t44.5 19t45 -19t19 -45z" />
    <glyph glyph-name="Ugrave.sc" unicode="&#xe034;" horiz-adv-x="911" 
d="M813 202q0 -97 -97 -158.5t-260 -61.5q-164 0 -261 61.5t-97 158.5v413h120v-389q0 -66 60.5 -101t177.5 -35q116 0 176.5 35t60.5 101v389h120v-413zM519 669h-61l-124 166h116z" />
    <glyph glyph-name="V.sc" unicode="&#xe035;" horiz-adv-x="828" 
d="M823 615l-340 -615h-138l-340 615h133l276 -511l276 511h133z" />
    <glyph glyph-name="W.sc" unicode="&#xe036;" horiz-adv-x="1040" 
d="M1020 615l-209 -615h-144l-147 514l-147 -514h-144l-209 615h133l148 -511l147 511h144l147 -511l148 511h133z" />
    <glyph glyph-name="X.sc" unicode="&#xe037;" horiz-adv-x="818" 
d="M805 0h-151l-245 241l-245 -241h-151l320 312l-309 303h151l234 -232l234 232h151l-309 -303z" />
    <glyph glyph-name="Y.sc" unicode="&#xe038;" horiz-adv-x="828" 
d="M823 615l-350 -373v-242h-120v242l-348 373h146l263 -280l263 280h146z" />
    <glyph glyph-name="Yacute.sc" unicode="&#xe039;" horiz-adv-x="828" 
d="M823 615l-350 -373v-242h-120v242l-348 373h146l263 -280l263 280h146zM538 835l-124 -166h-61l69 166h116z" />
    <glyph glyph-name="Ydieresis.sc" unicode="&#xe03a;" horiz-adv-x="828" 
d="M823 615l-350 -373v-242h-120v242l-348 373h146l263 -280l263 280h146zM579 746q0 -25 -19 -43.5t-45 -18.5t-44.5 18t-18.5 44t18.5 45t44.5 19q25 0 44.5 -19t19.5 -45zM378 746q0 -25 -19 -43.5t-45 -18.5t-44.5 18t-18.5 44t18.5 45t44.5 19t45 -19t19 -45z" />
    <glyph glyph-name="Z.sc" unicode="&#xe03b;" horiz-adv-x="767" 
d="M727 0h-687v109l492 397h-485v109h657v-109l-493 -397h516v-109z" />
    <glyph glyph-name="Zcaron.sc" unicode="&#xe03c;" horiz-adv-x="767" 
d="M727 0h-687v109l492 397h-485v109h657v-109l-493 -397h516v-109zM578 834l-153 -166h-80l-153 166h102l91 -99l91 99h102z" />
    <glyph glyph-name="germandbls.sc" unicode="&#xe03d;" horiz-adv-x="1583" 
d="M1431 463q-120 63 -262 63q-204 0 -204 -73q0 -14 6 -24t20 -17t30 -11t43.5 -7t51.5 -5t64 -5t72 -6q150 -15 218 -56t68 -129q0 -98 -89 -152.5t-256 -54.5q-237 0 -379 108l65 85q127 -89 312 -89q104 0 161 26.5t57 70.5q0 50 -70 69q-30 8 -71.5 11.5t-102.5 6
t-104 6.5q-114 11 -168 49t-54 111q0 88 86 139.5t242 51.5q207 0 337 -90zM662 463q-120 63 -261 63q-205 0 -205 -73q0 -14 6 -24t20.5 -17t30 -11t43.5 -7t52 -5t63.5 -5t71.5 -6q151 -15 218.5 -56t67.5 -129q0 -99 -88.5 -153t-256.5 -54q-237 0 -379 108l65 85
q127 -89 312 -89q104 0 161 26.5t57 70.5q0 50 -70 69q-30 8 -71.5 11.5t-102.5 6t-104 6.5q-114 11 -168 49t-54 111q0 88 86.5 139.5t242.5 51.5q208 0 337 -90z" />
    <glyph glyph-name="f_i.sc" unicode="&#xe03e;" horiz-adv-x="1099" 
d="M994 0h-120v615h120v-615zM744 506h-519v-132h361v-109h-361v-265h-120v615h639v-109z" />
    <glyph glyph-name="f_l.sc" unicode="&#xe03f;" horiz-adv-x="1494" 
d="M1469 0h-595v615h120v-506h475v-109zM744 506h-519v-132h361v-109h-361v-265h-120v615h639v-109z" />
    <glyph glyph-name="zero.sc" unicode="&#xe051;" horiz-adv-x="801" 
d="M735 306q0 -82 -39 -152t-109 -112q-86 -52 -187 -52t-187 52q-69 42 -108 112t-39 152q0 132 101 228q95 90 235 90q141 0 234 -90q99 -94 99 -228zM614 306q0 91 -60 149.5t-154 58.5t-153.5 -58t-59.5 -150q0 -90 60.5 -147.5t154.5 -57.5t153 57.5t59 147.5z" />
    <glyph glyph-name="one.sc" unicode="&#xe052;" horiz-adv-x="391" 
d="M267 0h-120v494l-98 -41v105q55 20 99 57h119v-615z" />
    <glyph glyph-name="two.sc" unicode="&#xe053;" horiz-adv-x="776" 
d="M700 0h-643q10 164 121 245q17 12 36.5 23l32 17.5t37.5 15l32 11t37 10.5t32 9q115 32 141 49q30 19 30 48q0 86 -157 86q-132 0 -240 -85l-78 80q151 114 320 114q129 0 206.5 -54.5t77.5 -140.5q0 -76 -48 -116t-158 -68l-52.5 -13t-52 -13.5l-42 -12.5t-43 -16.5
l-32.5 -19.5t-32.5 -27t-23.5 -33h499v-109z" />
    <glyph glyph-name="three.sc" unicode="&#xe054;" horiz-adv-x="780" 
d="M584 325q109 -55 109 -146q0 -89 -86.5 -138.5t-249.5 -49.5q-104 0 -184 31t-148 100l76 75q114 -97 258 -97q94 0 149.5 26t55.5 66q0 77 -234 77q-38 0 -59 -1v100q21 -1 60 -1q205 0 205 80q0 67 -159 67q-130 0 -235 -70l-73 76q152 103 309 103q134 0 209 -46.5
t75 -125.5q0 -74 -78 -126z" />
    <glyph glyph-name="four.sc" unicode="&#xe055;" horiz-adv-x="748" 
d="M702 116h-141v-116h-120v116h-414v108l414 391h120v-390h141v-109zM441 225v268l-285 -268h285z" />
    <glyph glyph-name="five.sc" unicode="&#xe056;" horiz-adv-x="786" 
d="M211 368q102 35 198 35q146 0 231 -56t85 -146q0 -93 -83.5 -151.5t-224.5 -58.5q-210 0 -355 131l94 69q110 -90 259 -90q90 0 139 27t49 73q0 48 -54 77t-150 29q-113 0 -222 -55l-98 52l100 311h500v-109h-418z" />
    <glyph glyph-name="six.sc" unicode="&#xe057;" horiz-adv-x="785" 
d="M184 298q97 95 245 95q128 0 211 -56t83 -138q0 -92 -82 -150.5t-216 -58.5q-163 0 -262.5 87.5t-99.5 226.5q0 107 61 186q50 65 126 100t169 35q149 0 282 -120l-89 -66q-74 75 -195 75q-100 0 -166.5 -58t-66.5 -145v-13zM213 196q25 -45 80.5 -70.5t131.5 -25.5
q82 0 129 25.5t47 66.5q0 43 -48 71.5t-128 28.5q-138 0 -212 -96z" />
    <glyph glyph-name="seven.sc" unicode="&#xe058;" horiz-adv-x="714" 
d="M669 506l-406 -506h-140l407 506h-496v109h635v-109z" />
    <glyph glyph-name="eight.sc" unicode="&#xe059;" horiz-adv-x="795" 
d="M613 324q126 -52 126 -147q0 -88 -88 -137.5t-253 -49.5t-253.5 49.5t-88.5 137.5q0 95 126 147q-84 48 -84 121q0 83 78 130t220 47q144 0 222.5 -47t78.5 -130q0 -73 -84 -121zM569 444q0 70 -171 70q-172 0 -172 -70q0 -77 172 -77q171 0 171 77zM607 185
q0 43 -51 62.5t-158 19.5q-108 0 -159 -19t-51 -63q0 -84 210 -84q209 0 209 84z" />
    <glyph glyph-name="nine.sc" unicode="&#xe05a;" horiz-adv-x="785" 
d="M600 317q-101 -96 -257 -96q-124 0 -203 55.5t-79 137.5q0 95 82 152.5t221 57.5q163 0 261.5 -88t98.5 -227q0 -106 -62 -185q-51 -64 -128.5 -99.5t-170.5 -35.5q-186 0 -283 94l84 82q92 -67 191 -67q111 0 178.5 57t67.5 147q0 7 -1 15zM571 418q-58 94 -216 94
q-82 0 -127.5 -26t-45.5 -70q0 -41 45.5 -67t124.5 -26q149 0 219 95z" />
    </font>
</defs>
</svg>
